SplineFontDB: 3.0
FontName: Lment
FullName: Lment
FamilyName: Lment
Weight: Medium
Copyright: Created with FontForge 2.0 (http://fontforge.sf.net)
UComments: "2011-7-18: Created." 
Version: 001.000
ItalicAngle: 0
UnderlinePosition: -100
UnderlineWidth: 50
Ascent: 800
Descent: 200
LayerCount: 2
Layer: 0 0 "Arri+AOgA-re"  1
Layer: 1 0 "Avant"  0
NeedsXUIDChange: 1
XUID: [1021 112 18547 17249]
FSType: 8
OS2Version: 0
OS2_WeightWidthSlopeOnly: 0
OS2_UseTypoMetrics: 1
CreationTime: 1310979219
ModificationTime: 1310987075
PfmFamily: 17
TTFWeight: 500
TTFWidth: 5
LineGap: 90
VLineGap: 0
OS2TypoAscent: 0
OS2TypoAOffset: 1
OS2TypoDescent: 0
OS2TypoDOffset: 1
OS2TypoLinegap: 90
OS2WinAscent: 0
OS2WinAOffset: 1
OS2WinDescent: 0
OS2WinDOffset: 1
HheadAscent: 0
HheadAOffset: 1
HheadDescent: 0
HheadDOffset: 1
OS2Vendor: 'PfEd'
MarkAttachClasses: 1
DEI: 91125
LangName: 1033 
Encoding: ISO8859-1
UnicodeInterp: none
NameList: Adobe Glyph List
DisplaySize: -24
AntiAlias: 1
FitToEm: 1
WidthSeparation: 150
WinInfo: 0 75 22
TeXData: 1 0 0 346030 173015 115343 619708 1048576 115343 783286 444596 497025 792723 393216 433062 380633 303038 157286 324010 404750 52429 2506097 1059062 262144
BeginChars: 256 120

StartChar: exclam
Encoding: 33 33 0
Width: 342
VWidth: 0
Flags: W
HStem: 0 165<73 133 208 268> 105 60<133 208> 531 60<133 208>
VStem: 73 60<0 105 219.375 531> 208 60<0 105 219.375 531>
LayerCount: 2
Fore
SplineSet
73 0 m 1xb8
 73 165 l 1
 268 165 l 1
 268 0 l 1
 208 0 l 1xb8
 208 105 l 1
 133 105 l 1x78
 133 0 l 1
 73 0 l 1xb8
73 219.375 m 1
 73 591 l 1
 268 591 l 1
 268 219.375 l 1
 208 219.375 l 1
 208 531 l 1
 133 531 l 1
 133 219.375 l 1
 73 219.375 l 1
EndSplineSet
Validated: 524289
EndChar

StartChar: dollar
Encoding: 36 36 1
Width: 573
VWidth: 0
Flags: W
HStem: -10 60<287.932 341.406> 141.875 60<59.375 139.07> 177.5 60<284 340.214> 314.062 60<284 339.004> 427.125 60<409.23 498.688> 580 20G<234.65 308.032> 580 20G<234.65 308.032>
VStem: 112.812 60<270.512 353.154> 131.188 60<102.477 142.25 407.086 512.81> 224.001 59.999<88.625 177.5 390.938 523.312> 342.125 60<73.25 132.875 373.125 427.125> 453.125 60<167.531 246.303>
LayerCount: 2
Fore
SplineSet
273.875 600 m 0xdcf0
 342.189 600 401.293 551.824 415.438 487.125 c 1
 498.688 487.125 l 1
 498.688 427.125 l 1
 402.125 427.125 l 1
 402.125 356.438 l 1
 467.604 325.898 513.125 249.09 513.125 172.438 c 0
 513.125 67.3086 425.486 -10 322.25 -10 c 2
 322.068 -10 l 2
 229.104 -10 149.475 53 134.374 142.25 c 1
 59.375 141.875 l 1
 59 201.875 l 1
 175.812 202.625 l 1
 137.949 228.371 112.812 281.613 112.812 330.562 c 0xdd70
 112.812 360.756 122.357 389.139 138.501 412.312 c 1
 133.783 426.422 131.188 441.475 131.188 457.125 c 0
 131.188 535.582 195.424 600 273.875 600 c 0xdcf0
284 539.438 m 1
 284 374.062 l 1
 322.812 374.062 l 2
 329.299 374.039 335.803 373.793 342.125 373.125 c 2
 342.125 506.062 l 1
 328.42 524.039 307.502 536.619 284 539.438 c 1
224.001 523.312 m 1
 204.084 508.23 191.188 484.283 191.188 457.125 c 0x98f0
 191.188 429.955 204.084 406.072 224.001 390.938 c 1
 224.001 523.312 l 1
176.188 353.812 m 1
 174.26 347.039 173.188 338.736 172.812 330.562 c 0
 172.812 284.514 209.463 237.5 255.501 237.5 c 2
 304.625 237.5 l 2xb970
 364.484 237.277 417.998 208.842 452.938 165.312 c 1
 453.049 167.662 453.125 170.035 453.125 172.438 c 0
 453.125 245.164 394.959 314.062 322.25 314.062 c 2
 273.125 314.062 l 2
 235.654 314.25 201.635 329.842 176.188 353.812 c 1
191.188 193.438 m 1x98f0
 191.188 172.438 l 2
 191.188 138.658 203.463 109.807 224.001 88.625 c 1
 224.001 181.25 l 1
 212.492 184.033 201.482 188.188 191.188 193.438 c 1x98f0
284 177.5 m 1xb870
 284 54.6875 l 1
 296.035 51.6172 308.814 50 322.25 50 c 0
 329.006 50 335.697 50.5215 342.125 51.3125 c 2
 342.125 171.688 l 1
 330.072 175.367 317.152 177.5 303.875 177.5 c 2
 284 177.5 l 1xb870
402.125 132.875 m 1
 402.125 73.25 l 1
 411.008 79.2969 418.924 86.3516 425.756 94.4385 c 1
 420.119 108.611 412.08 121.584 402.125 132.875 c 1
EndSplineSet
Validated: 524289
EndChar

StartChar: zero
Encoding: 48 48 2
Width: 722
VWidth: 0
Flags: W
HStem: -10 60<273.619 458.505> 540 60<266.18 436.243>
VStem: 61 60<214.755 388.909> 601 60<192.496 377.438>
LayerCount: 2
Fore
SplineSet
361 -10 m 0
 304.188 -10 250.727 5.82031 205.375 33.3594 c 2
 172.797 53.2812 l 1
 597.719 488.203 l 1
 617.641 455.625 l 2
 645.197 410.273 661 346.807 661 290 c 0
 661 124.666 526.34 -10 361 -10 c 0
361 50 m 0
 493.914 50 601 157.086 601 290 c 0
 601 321.635 594.484 351.5 583.422 379.062 c 1
 271.938 67.5781 l 1
 299.5 56.5156 329.371 50 361 50 c 0
117.016 110.938 m 1
 97.7969 146.094 l 2
 74.4238 188.791 61 237.986 61 290 c 0
 61 455.334 195.684 600 361 600 c 0
 413.014 600 462.197 586.588 504.906 563.203 c 2
 540.062 543.984 l 1
 117.016 110.938 l 1
134.828 213.828 m 1
 437.172 526.172 l 1
 413.113 534.293 387.9 540 361 540 c 0
 228.109 540 121 422.908 121 290 c 0
 121 263.105 126.707 237.881 134.828 213.828 c 1
EndSplineSet
Validated: 524289
EndChar

StartChar: one
Encoding: 49 49 3
Width: 570
VWidth: 0
Flags: W
HStem: 0 21G<304.578 364.578 435.359 495.359> 0 21G<304.578 364.578 435.359 495.359> 338.844 60<191.609 237.547> 636.422 20G<344.578 364.578 475.359 495.359>
VStem: 304.578 60<0 380.797> 435.359 60<0 511.344>
LayerCount: 2
Fore
SplineSet
304.578 0 m 1xbc
 304.578 380.797 l 1
 262.625 338.844 l 1
 47 338.844 l 1
 364.578 656.422 l 1
 364.578 525.641 l 1
 495.359 656.422 l 1
 495.359 0 l 1
 435.359 0 l 1
 435.359 511.344 l 1
 364.578 440.797 l 1
 364.578 0 l 1
 304.578 0 l 1xbc
191.609 398.844 m 1
 237.547 398.844 l 1
 304.578 465.875 l 1
 304.578 511.344 l 1
 191.609 398.844 l 1
EndSplineSet
Validated: 524289
EndChar

StartChar: two
Encoding: 50 50 4
Width: 530
VWidth: 0
Flags: W
HStem: 0 60<131 197.562 257.562 468.5> 118.125 60<257.562 468.5> 431.938 60<132.279 352.828> 539.188 60<132.57 350.908>
VStem: 71 60<60 208.365 477.875 530.669> 197.562 60<60 118.125 178.125 216.562>
LayerCount: 2
Fore
SplineSet
232.625 599.188 m 0
 243.307 599.428 254.123 599.311 265.062 598.812 c 0
 308.832 596.826 354.529 588.523 392.188 563.375 c 0
 429.846 538.227 456.312 493.596 456.312 434.938 c 0
 456.312 376.279 431.639 347.238 396.688 312.562 c 0
 361.736 277.887 317.293 255.041 274.062 239.062 c 0
 268.408 236.971 263.006 235.084 257.562 233.25 c 2
 257.562 178.125 l 1
 468.5 178.125 l 1
 468.5 118.125 l 1
 257.562 118.125 l 1
 257.562 60 l 1
 468.5 60 l 1
 468.5 0 l 1
 71 0 l 1
 71 260.812 l 1
 99.3125 262.5 l 1
 99.3125 262.5 177.248 267.152 253.438 295.312 c 0
 291.535 309.393 328.268 329.473 354.312 355.312 c 0
 366.447 367.354 367.102 370.729 374.25 385.5 c 1
 361.881 407.988 352.496 412.215 327.5 421.062 c 0
 300.646 430.566 266.896 433.35 234.312 431.938 c 0
 169.145 429.113 110.188 410.562 110.188 410.562 c 1
 71 398.188 l 1
 71 573.875 l 1
 93.3125 580.062 l 1
 93.3125 580.062 157.859 597.5 232.625 599.188 c 0
241.062 539.188 m 0
 192.576 539.029 152.369 531.172 131 526.438 c 1
 131 477.875 l 1
 156.951 483.816 191.914 490.203 231.875 491.938 c 0
 269.328 493.561 309.688 491.023 347.375 477.688 c 0
 364.057 471.781 380.182 462.857 394.812 451.812 c 1
 391.297 482.691 378.646 500.252 358.812 513.5 c 0
 335.475 529.086 299.809 537.107 262.25 538.812 c 0
 255.014 539.141 247.988 539.211 241.062 539.188 c 0
197.562 216.562 m 1
 169.766 210.393 146.885 207.334 131 205.688 c 1
 131 60 l 1
 197.562 60 l 1
 197.562 216.562 l 1
EndSplineSet
Validated: 524325
EndChar

StartChar: three
Encoding: 51 51 5
Width: 572
VWidth: 0
Flags: W
HStem: -10 60<67.3753 218.764 294.5 366.733> 200.938 60<143.375 293.938> 335.938 60<143.375 293.938> 539.875 60<67.3748 366.682>
VStem: 83.375 60<260.938 335.938> 302.562 60.188<129.24 200.938 395.938 462.514> 446.188 60<129.296 289.652 307.162 462.168>
LayerCount: 2
Fore
SplineSet
143.938 599.875 m 0
 168.875 599.875 192.816 595.615 215.188 587.875 c 0
 215.246 587.857 215.316 587.893 215.375 587.875 c 0
 237.957 595.709 262.239 599.875 287.375 599.875 c 0
 347.668 599.875 402.465 575.354 442.062 535.75 c 0
 481.672 496.152 506.188 447.986 506.188 387.688 c 0
 506.188 355.719 498.137 325.912 485.75 298.438 c 1
 498.178 270.928 506.188 241.039 506.188 209 c 0
 506.188 148.713 481.666 93.541 442.062 53.9375 c 0
 402.465 14.3398 347.668 -10 287.375 -10 c 0
 262.303 -10 238.098 -5.61133 215.562 2.1875 c 1
 193.074 -5.59961 169.027 -10 143.938 -10 c 0
 110.428 -10 78.4531 -2.33008 50 11.1875 c 1
 75.6875 65.1875 l 1
 96.3301 55.3789 119.457 50 143.938 50 c 0
 188.012 50 227.445 67.8828 256.25 96.6885 c 0
 283.303 123.74 300.541 160.115 302.562 200.938 c 1
 83.375 200.938 l 1
 83.375 395.938 l 1
 302.562 395.938 l 1
 300.5 436.719 283.256 466.188 256.25 493.188 c 0
 227.445 521.998 188.018 539.875 143.938 539.875 c 0
 119.457 539.875 96.3359 534.49 75.6875 524.688 c 1
 50 578.875 l 1
 78.4473 592.381 110.428 599.875 143.938 599.875 c 0
294.312 539.688 m 1
 295.73 538.346 297.248 537.127 298.625 535.75 c 0
 338.234 496.152 362.75 447.986 362.75 387.688 c 0
 362.75 355.719 354.887 325.912 342.5 298.438 c 1
 354.928 270.928 362.75 241.039 362.75 209 c 0
 362.75 148.713 338.229 93.541 298.625 53.9375 c 0
 297.307 52.6191 295.848 51.4707 294.5 50.1875 c 1
 335.703 51.9922 372.248 69.4355 399.5 96.6885 c 0
 428.311 125.498 446.188 164.932 446.188 209 c 0
 446.188 236.328 439.309 261.781 427.25 284.188 c 2
 419.75 298.438 l 1
 427.25 312.5 l 2
 439.309 334.906 446.188 360.383 446.188 387.688 c 0
 446.188 431.773 428.311 464.383 399.5 493.188 c 0
 372.213 520.48 335.592 537.93 294.312 539.688 c 1
143.375 335.938 m 1
 143.375 260.938 l 1
 293.938 260.938 l 1
 291.137 268.977 287.797 276.775 283.812 284.188 c 2
 276.312 298.438 l 1
 283.812 312.5 l 2
 287.826 319.959 291.125 327.834 293.938 335.938 c 1
 143.375 335.938 l 1
EndSplineSet
Validated: 524289
EndChar

StartChar: four
Encoding: 52 52 6
Width: 705
VWidth: 0
Flags: W
HStem: 0 21G<476.375 536.375> 0 21G<476.375 536.375> 130.312 60<189.5 278.938 363.125 476.375 536.375 649.812> 610.375 20G<516.802 536.375>
VStem: 476.375 60<0 130.312 190.312 306 391.875 483.188>
LayerCount: 2
Fore
SplineSet
536.375 630.375 m 5xb8
 536.375 190.312 l 5
 649.812 190.312 l 5
 649.812 130.312 l 5
 536.375 130.312 l 5
 536.375 0 l 5
 476.375 0 l 5
 476.375 130.312 l 5
 47 130.312 l 5
 536.375 630.375 l 5xb8
476.375 483.188 m 5
 189.5 190.312 l 5
 278.938 190.312 l 5
 476.375 391.875 l 5
 476.375 483.188 l 5
476.375 306 m 5
 474.688 304.312 l 5
 363.125 190.312 l 5
 476.375 190.312 l 5
 476.375 306 l 5
EndSplineSet
Validated: 524289
EndChar

StartChar: five
Encoding: 53 53 7
Width: 516
VWidth: 0
Flags: W
HStem: -9.875 60.9375<132.878 303.593> 102.438 61.312<132 301.536> 329.688 61.124<132 196.09> 414.062 60<258.562 422.625> 532.188 60<132 198.562 258.562 422.625>
VStem: 72 60<51.0625 102.438 390.812 532.188> 198.562 60<390.438 414.062 474.062 532.188>
LayerCount: 2
Fore
SplineSet
72 592.188 m 1
 422.625 592.188 l 1
 422.625 532.188 l 1
 258.562 532.188 l 1
 258.562 474.062 l 1
 422.625 474.062 l 1
 422.625 414.062 l 1
 258.562 414.062 l 1
 258.562 382.75 l 2
 262.617 382.006 266.578 381.367 270.75 380.5 c 0
 314.332 371.453 359.643 355.768 395.812 325.75 c 0
 431.982 295.727 457.312 249.596 457.312 190.938 c 0
 457.312 132.279 431.982 85.9551 395.812 55.9375 c 0
 359.643 25.9141 314.338 10.2285 270.75 1.1875 c 0
 227.168 -7.85938 184.312 -9.91016 152.25 -9.875 c 0
 120.188 -9.83984 99 -7.8125 99 -7.8125 c 1
 72 -5 l 1
 72 167.312 l 1
 105.375 163.75 l 1
 105.375 163.75 163.968 157.791 229.688 167.312 c 0
 292.711 176.447 356.086 199.932 383.438 248.312 c 1
 376.734 260.236 368.057 270.602 357.188 279.625 c 0
 332.361 300.227 296.302 313.979 258.562 321.812 c 0
 183.082 337.475 105.188 329.688 105.188 329.688 c 1
 72 326.5 l 1
 72 592.188 l 1
132 532.188 m 1
 132 390.812 l 1
 149.104 391.65 171.761 392.23 198.562 390.438 c 1
 198.562 532.188 l 1
 132 532.188 l 1
395.25 170.125 m 1
 350.748 132.414 291.011 115.299 238.5 107.688 c 0
 193.6 101.184 157.881 101.412 132 102.438 c 1
 132 51.0625 l 1
 140.25 50.6465 140.701 50.1074 153.562 50.125 c 0
 182.496 50.1602 220.822 52.041 258.562 59.875 c 0
 296.302 67.7031 332.361 81.4551 357.188 102.062 c 0
 377.555 118.967 390.926 139.885 395.25 170.125 c 1
EndSplineSet
Validated: 524321
EndChar

StartChar: six
Encoding: 54 54 8
Width: 589
VWidth: 0
Flags: W
HStem: -10 60<212.247 378.885> 107.656 60<249.487 337.764> 570.469 20G<464.406 504.406> 586.172 20G<330.578 370.578 464.406 504.406>
VStem: 63 60<139.107 305.747> 172.688 60<184.46 273.67> 354.562 60<184.46 275.608> 468 60<139.109 305.43>
LayerCount: 2
Fore
SplineSet
295.5 -10 m 4xef
 231.475 -10 173.244 15.9277 131.203 57.9688 c 4
 89.1504 100.004 63 158.469 63 222.5 c 4
 63 286.514 89.1562 344.75 131.203 386.797 c 6
 350.578 606.172 l 5xdf
 393 563.75 l 5
 173.625 344.375 l 6
 142.371 313.115 123 270.307 123 222.5 c 4
 123 174.676 142.371 131.627 173.625 100.391 c 4
 204.873 69.1367 247.688 50 295.5 50 c 4
 343.312 50 386.355 69.1367 417.609 100.391 c 4
 448.857 131.633 468 174.676 468 222.5 c 4
 468 259.982 455.842 294.131 435.656 322.344 c 5
 397.922 288.594 l 5
 408.176 270.787 414.562 250.455 414.562 228.594 c 4
 414.562 195.395 401.039 164.902 379.172 143.047 c 4
 357.328 121.203 326.842 107.656 293.625 107.656 c 4
 260.414 107.656 229.922 121.197 208.078 143.047 c 4
 186.211 164.902 172.688 195.395 172.688 228.594 c 4
 172.688 261.799 186.205 292.285 208.078 314.141 c 6
 484.406 590.469 l 5
 526.828 548.047 l 5
 250.5 271.719 l 6
 239.449 260.674 232.688 245.592 232.688 228.594 c 4
 232.688 211.602 239.438 196.525 250.5 185.469 c 4
 261.539 174.424 276.633 167.656 293.625 167.656 c 4
 310.629 167.656 325.699 174.412 336.75 185.469 c 4
 347.812 196.525 354.562 211.602 354.562 228.594 c 4
 354.562 245.592 347.801 260.674 336.75 271.719 c 6
 314.25 293.984 l 5
 439.875 406.953 l 5
 460.031 386.797 l 6
 502.066 344.75 528 286.52 528 222.5 c 4
 528 158.469 502.072 100.004 460.031 57.9688 c 4
 417.99 15.9277 359.525 -10 295.5 -10 c 4xef
EndSplineSet
Validated: 524289
EndChar

StartChar: seven
Encoding: 55 55 9
Width: 597
VWidth: 0
Flags: W
HStem: 0 21G<59.9375 141.883 195.312 278.125> 0 21G<59.9375 141.883 195.312 278.125> 429.875 60<116 305.938 414.125 444.875> 531.125 60<116 369.5>
VStem: 56 60<489.875 531.125>
LayerCount: 2
Fore
SplineSet
56 591.125 m 1xb8
 477.875 591.125 l 1
 414.125 489.875 l 1
 554.188 489.875 l 1
 266.375 0 l 1
 195.312 0 l 1
 444.875 429.875 l 1
 376.438 429.875 l 1
 130.438 0 l 1
 59.9375 0 l 1
 305.938 429.875 l 1
 56 429.875 l 1
 56 591.125 l 1xb8
116 531.125 m 1
 116 489.875 l 1
 343.438 489.875 l 1
 369.5 531.125 l 1
 116 531.125 l 1
EndSplineSet
Validated: 524289
EndChar

StartChar: eight
Encoding: 56 56 10
Width: 586
VWidth: 0
Flags: W
HStem: 52.6738 60.0002<357.753 447.67> 370.955 60<357.754 447.67> 539.781 60<207.197 335.923>
VStem: 68 60<139.87 299.089 300.473 460.58> 177.688 60<94.6363 240.027 241.411 401.07> 285.529 60<126.514 215.383 268.248 357.117> 461.076 60<126.083 215.382 268.247 357.549>
LayerCount: 2
Fore
SplineSet
337.297 -11 m 1
 252.453 2.59375 l 2
 147.852 19.1348 68 109.779 68 218.688 c 0
 68 247.398 74.5391 274.586 84.6406 299.781 c 1
 74.5391 324.982 68 352.164 68 380.875 c 0
 68 501.461 166.314 599.781 286.906 599.781 c 0
 350.674 599.781 408.383 572.219 448.391 528.531 c 2
 506.516 465.25 l 1
 421.672 478.844 l 2
 413.533 480.139 405.131 480.719 396.594 480.719 c 0
 308.428 480.719 237.688 409.967 237.688 321.812 c 0
 237.688 297.344 243.119 274.252 252.922 253.609 c 2
 259.016 240.719 l 1
 252.922 227.828 l 2
 243.113 207.18 237.688 184.094 237.688 159.625 c 0
 237.688 118.082 253.467 80.623 279.406 52.2812 c 2
 337.297 -11 l 1
188.703 94 m 1
 182.1 114.871 177.688 136.645 177.688 159.625 c 0
 177.688 188.336 184.227 215.523 194.328 240.719 c 1
 184.227 265.92 177.688 293.102 177.688 321.812 c 0
 177.688 421.369 245.094 504.689 336.359 531.109 c 1
 320.721 536.254 304.35 539.781 286.906 539.781 c 0
 198.74 539.781 128 469.029 128 380.875 c 0
 128 356.406 133.432 333.314 143.234 312.672 c 2
 149.328 299.781 l 1
 143.234 286.891 l 2
 133.426 266.242 128 243.156 128 218.688 c 0
 128 167.822 151.795 123.045 188.703 94 c 1
403.42 52.6738 m 0
 338.744 52.6738 285.529 105.66 285.529 170.33 c 0
 285.529 197.254 295.268 221.916 310.607 241.814 c 1
 295.268 261.713 285.529 286.381 285.529 313.299 c 0
 285.529 377.975 338.744 430.955 403.42 430.955 c 0
 468.096 430.955 521.076 377.975 521.076 313.299 c 0
 521.076 286.387 511.561 261.707 496.232 241.814 c 1
 511.561 221.922 521.076 197.242 521.076 170.33 c 0
 521.076 105.66 468.096 52.6738 403.42 52.6738 c 0
403.42 112.674 m 0
 435.67 112.674 461.076 138.092 461.076 170.33 c 0
 461.076 189.936 451.467 206.928 436.701 217.439 c 2
 403.42 241.111 l 1
 369.904 217.439 l 2
 355.139 206.928 345.529 189.941 345.529 170.33 c 0
 345.529 138.092 371.176 112.674 403.42 112.674 c 0
403.42 242.518 m 1
 436.701 266.189 l 2
 451.473 276.713 461.076 293.699 461.076 313.299 c 0
 461.076 345.543 435.67 370.955 403.42 370.955 c 0
 371.182 370.955 345.529 345.543 345.529 313.299 c 0
 345.529 293.693 355.127 276.713 369.904 266.189 c 2
 403.42 242.518 l 1
EndSplineSet
Validated: 524289
EndChar

StartChar: nine
Encoding: 57 57 11
Width: 587
VWidth: 0
Flags: W
HStem: -0.0625 21G<83.5939 123.56> -0.0625 21G<83.5939 123.56> 422.516 60<250.237 339.063> 540.406 60<209.115 375.753>
VStem: 60 60<284.813 451.154> 173.438 60<314.5 405.778> 355.312 60<316.805 405.711> 465 60<284.513 451.152>
LayerCount: 2
Fore
SplineSet
237.422 -16 m 1xbf
 195 26.4219 l 1
 414.375 245.797 l 2
 445.629 277.033 465 320.082 465 367.906 c 0
 465 415.713 445.629 458.521 414.375 489.781 c 0
 383.127 521.029 340.312 540.406 292.5 540.406 c 0
 244.688 540.406 201.645 521.029 170.391 489.781 c 0
 139.137 458.521 120 415.713 120 367.906 c 0
 120 330.359 132.117 296.047 152.344 267.828 c 1
 189.844 301.578 l 1
 179.584 319.379 173.438 339.945 173.438 361.812 c 0
 173.438 395.023 186.949 425.281 208.828 447.125 c 0
 230.672 468.992 261.164 482.516 294.375 482.516 c 0
 327.516 482.516 357.85 468.922 379.688 447.125 c 1
 379.688 446.891 l 1
 401.484 425.053 415.312 394.959 415.312 361.812 c 0
 415.312 328.672 401.479 298.338 379.688 276.5 c 2
 103.594 -0.0625 l 1
 61.1719 42.3594 l 1
 337.266 318.688 l 2
 348.117 331.695 355.102 348.107 355.312 361.812 c 0
 355.312 378.822 348.551 393.664 337.5 404.703 c 0
 323.777 415.068 308.303 422.305 294.375 422.516 c 0
 277.365 422.516 262.301 415.76 251.25 404.703 c 0
 240.199 393.664 233.438 378.822 233.438 361.812 c 0
 233.438 344.809 240.188 329.732 251.25 318.688 c 2
 273.516 296.188 l 1
 148.125 183.219 l 1
 127.969 203.375 l 2
 85.9219 245.41 60 303.869 60 367.906 c 0
 60 431.926 85.9336 490.156 127.969 532.203 c 0
 170.01 574.244 228.475 600.406 292.5 600.406 c 0
 356.525 600.406 414.756 574.244 456.797 532.203 c 0
 498.844 490.15 525 431.92 525 367.906 c 0
 525 303.875 498.85 245.41 456.797 203.375 c 2
 237.422 -16 l 1xbf
EndSplineSet
Validated: 524289
EndChar

StartChar: colon
Encoding: 58 58 12
Width: 340
VWidth: 0
Flags: W
HStem: 0 60<132 207> 135 60<132 207> 219.375 60<132 207> 354.375 60<132 207>
VStem: 72 60<60 135 279.375 354.375> 207 60<60 135 279.375 354.375>
LayerCount: 2
Fore
SplineSet
72 0 m 5
 72 195 l 5
 267 195 l 5
 267 0 l 5
 72 0 l 5
132 60 m 5
 207 60 l 5
 207 135 l 5
 132 135 l 5
 132 60 l 5
72 219.375 m 5
 72 414.375 l 5
 267 414.375 l 5
 267 219.375 l 5
 72 219.375 l 5
132 279.375 m 5
 207 279.375 l 5
 207 354.375 l 5
 132 354.375 l 5
 132 279.375 l 5
EndSplineSet
Validated: 524289
EndChar

StartChar: semicolon
Encoding: 59 59 13
Width: 339
VWidth: 0
Flags: W
HStem: 0 60<183.469 206.203> 130.547 60<75.8906 206.203> 214.922 60<131.203 206.203> 349.922 60<131.203 206.203>
VStem: 71.2031 59.9999<274.922 349.922> 206.203 60<60 130.547 274.922 349.922>
LayerCount: 2
Fore
SplineSet
71.2031 214.922 m 5
 71.2031 409.922 l 5
 266.203 409.922 l 5
 266.203 214.922 l 5
 71.2031 214.922 l 5
131.203 274.922 m 5
 206.203 274.922 l 5
 206.203 349.922 l 5
 131.203 349.922 l 5
 131.203 274.922 l 5
105.656 -77.8125 m 5
 63 -35.3906 l 5
 158.391 60 l 5
 206.203 60 l 5
 206.203 130.547 l 5
 75.8906 130.547 l 5
 75.8906 190.547 l 5
 266.203 190.547 l 5
 266.203 0 l 5
 183.469 0 l 5
 105.656 -77.8125 l 5
EndSplineSet
Validated: 524289
EndChar

StartChar: less
Encoding: 60 60 14
Width: 540
VWidth: 0
Flags: W
LayerCount: 2
Fore
SplineSet
468.062 600.875 m 5
 55 362.562 l 5
 209.875 273.125 l 5
 55 183.875 l 5
 467.875 -54.625 l 5
 467.875 193.438 l 5
 329.875 273.125 l 5
 468.062 352.812 l 5
 468.062 600.875 l 5
408.062 497 m 5
 408.062 387.5 l 5
 269.875 307.812 l 5
 175 362.562 l 5
 408.062 497 l 5
269.875 238.438 m 5
 407.875 158.75 l 5
 407.875 49.25 l 5
 175 183.875 l 5
 269.875 238.438 l 5
EndSplineSet
Validated: 524297
EndChar

StartChar: greater
Encoding: 62 62 15
Width: 540
VWidth: 0
Flags: W
HStem: 580.875 20G<73 107.666> 580.875 20G<73 107.666>
VStem: 73.1875 60.0005<49.25 158.75 387.5 497>
LayerCount: 2
Fore
SplineSet
73 600.875 m 5xa0
 486.062 362.562 l 5
 331.188 273.125 l 5
 486.062 183.875 l 5
 73.1875 -54.625 l 5
 73.1875 193.438 l 5
 211.188 273.125 l 5
 73 352.812 l 5
 73 600.875 l 5xa0
133 497 m 5
 133 387.5 l 5
 271.188 307.812 l 5
 366.062 362.562 l 5
 133 497 l 5
271.188 238.438 m 5
 133.188 158.75 l 5
 133.188 49.25 l 5
 366.062 183.875 l 5
 271.188 238.438 l 5
EndSplineSet
Validated: 524289
EndChar

StartChar: question
Encoding: 63 63 16
Width: 350
VWidth: 0
Flags: W
HStem: 0 165<77.709 137.709 212.709 272.709> 105 60<137.709 212.709> 245.578 60<124.017 183.853> 369.094 60<123.903 223.542> 540.656 60<132.317 227.834>
VStem: 62.0059 59.9941<307.592 366.897 487.219 529.697> 77.709 60<0 105> 186.453 60<307.718 337.219> 212.709 60<0 105> 238.016 60<441.468 529.919>
LayerCount: 2
Fore
SplineSet
153.646 245.578 m 4x3d
 103.42 245.578 62.0059 286.992 62.0059 337.219 c 4
 62.0059 387.205 103.045 428.701 152.943 429.094 c 6
 180.125 429.094 l 6
 212.498 429.094 238.016 454.846 238.016 487.219 c 4
 238.016 519.592 214.396 540.656 180.125 540.656 c 4
 145.848 540.656 122 519.592 122 487.219 c 5
 62 487.219 l 5
 62 552.012 117.225 600.656 180.125 600.656 c 4
 243.025 600.656 298.016 552.012 298.016 487.219 c 4x3c40
 298.016 422.578 245.182 369.352 180.594 369.094 c 6
 153.641 369.094 l 6
 135.84 369.094 122 355.02 122 337.219 c 4
 122 319.418 135.84 305.578 153.641 305.578 c 4
 171.436 305.578 186.453 320.086 186.453 337.219 c 5
 246.453 337.219 l 5
 246.453 286.324 203.861 245.578 153.646 245.578 c 4x3d
77.709 0 m 1xba80
 77.709 165 l 1
 272.709 165 l 1
 272.709 0 l 1
 212.709 0 l 1xba80
 212.709 105 l 1
 137.709 105 l 1x7a80
 137.709 0 l 1
 77.709 0 l 1xba80
EndSplineSet
Validated: 524289
EndChar

StartChar: at
Encoding: 64 64 17
Width: 736
VWidth: 0
Flags: W
HStem: 0 60<253.183 520.312> 118.562 60<299.716 490.312 550.312 608.438> 422.312 60<299.366 437.407> 540.438 60<263.409 465.031>
VStem: 60 60<195.397 397.031> 186.562 60<231.362 369.51> 490.312 60<178.562 369.161> 608.438 60<178.562 396.799>
LayerCount: 2
Fore
SplineSet
393.75 0 m 2
 278.467 0 203.455 26.6699 149.062 81.0625 c 0
 94.0371 136.07 60 212.377 60 296.219 c 0
 60 380.037 94.0371 456.361 149.062 511.375 c 0
 204.082 566.395 280.389 600.438 364.219 600.438 c 0
 448.055 600.438 524.355 566.395 579.375 511.375 c 0
 634.4 456.361 668.438 380.037 668.438 296.219 c 2
 668.438 118.562 l 1
 368.438 118.562 l 2
 318.393 118.562 272.648 138.871 239.766 171.766 c 0
 206.895 204.637 186.562 250.387 186.562 300.438 c 0
 186.562 350.482 206.895 396.232 239.766 429.109 c 0
 272.643 461.975 318.387 482.312 368.438 482.312 c 0
 418.489 482.312 464.232 461.975 497.109 429.109 c 0
 529.98 396.232 550.312 350.482 550.312 300.438 c 2
 550.312 178.562 l 1
 608.438 178.562 l 1
 608.438 296.219 l 2
 608.438 363.824 581.18 424.738 536.953 468.953 c 0
 492.715 513.186 431.836 540.438 364.219 540.438 c 0
 296.607 540.438 235.723 513.186 191.484 468.953 c 0
 147.258 424.738 120 363.824 120 296.219 c 0
 120 228.59 147.258 167.699 191.484 123.484 c 0
 236.35 78.6191 289.658 60 393.75 60 c 2
 520.312 60 l 1
 520.312 0 l 1
 393.75 0 l 2
368.438 178.562 m 2
 490.312 178.562 l 1
 490.312 300.438 l 2
 490.312 334.27 476.537 364.598 454.453 386.688 c 0
 432.369 408.701 402.199 422.312 368.438 422.312 c 0
 334.611 422.312 304.283 408.777 282.188 386.688 c 0
 260.104 364.598 246.562 334.27 246.562 300.438 c 0
 246.562 266.605 260.104 236.271 282.188 214.188 c 0
 304.277 192.086 334.6 178.562 368.438 178.562 c 2
EndSplineSet
Validated: 524289
EndChar

StartChar: A
Encoding: 65 65 18
Width: 812
VWidth: 0
Flags: W
HStem: 0.25 60<554.562 655.812> 636 20G<383.118 404.937>
LayerCount: 2
Fore
SplineSet
393.688 656 m 1
 762.5 0.25 l 1
 518.562 0.25 l 1
 393.688 240.688 l 1
 287 0 l 1
 217.625 0 l 1
 393.688 360.688 l 1
 554.562 60.25 l 1
 655.812 60.25 l 1
 393.688 536 l 1
 116.375 0 l 1
 47 0 l 1
 393.688 656 l 1
EndSplineSet
Validated: 524289
EndChar

StartChar: B
Encoding: 66 66 19
Width: 639
VWidth: 0
Flags: W
HStem: 0 58.5<133 199.562 259.562 441.439> 142.312 60<259.562 340.291> 375.375 59.906<259.562 309.033> 539.906 60.094<133 199.562 259.562 377.366>
VStem: 73 60<58.5 539.906> 199.562 60<58.5 142.312 202.312 375.375 435.281 539.906> 311.312 60<326.639 373.541> 351.438 60<214.367 295.456> 424.562 60<388.968 493.784> 517.375 60<134.359 297.923>
LayerCount: 2
Fore
SplineSet
73 600 m 5xfcc0
 312.062 600 l 6
 407.031 600 484.562 522.65 484.562 427.688 c 4
 484.562 417.732 483.572 407.941 481.938 398.438 c 5
 539.459 358.928 577.375 292.676 577.375 217.875 c 4
 577.375 106.535 496.797 12.2051 388.188 0 c 5
 73 0 l 5
 73 600 l 5xfcc0
312.062 539.906 m 6
 259.562 539.906 l 5
 259.562 435.281 l 5
 279.812 435.281 l 6
 330.021 435.281 371.312 394.096 371.312 343.875 c 4xfec0
 371.312 342.246 370.832 340.799 370.75 339.188 c 4
 395.383 318.668 411.438 288.211 411.438 253.875 c 4xfdc0
 411.438 191.367 358.34 142.312 297.062 142.312 c 6
 259.562 142.312 l 5
 259.562 58.5 l 5
 364.562 58.875 l 6
 452.734 58.875 517.375 128.525 517.375 217.875 c 4
 517.375 278.701 483.584 331.107 433.75 357.938 c 6
 411.625 369.75 l 5
 419.125 393.562 l 6
 422.564 404.355 424.562 415.74 424.562 427.688 c 4
 424.562 490.225 374.605 539.906 312.062 539.906 c 6
133 539.906 m 5
 133 58.5 l 5
 199.562 58.5 l 5
 199.562 539.906 l 5
 133 539.906 l 5
259.562 375.375 m 5
 259.562 202.312 l 5
 297.062 202.312 l 6
 325.92 202.312 351.438 226.26 351.438 253.875 c 4xfdc0
 351.438 273.727 340.527 290.537 324.438 299.25 c 6
 302.688 311.062 l 5
 310 334.688 l 6
 310.902 337.611 311.312 340.588 311.312 343.875 c 4
 311.312 361.664 297.602 375.375 279.812 375.375 c 6
 259.562 375.375 l 5
EndSplineSet
Validated: 524289
EndChar

StartChar: C
Encoding: 67 67 20
Width: 639
VWidth: 0
Flags: W
HStem: -12 60<255.507 453.788> 107.25 60<286.035 423.406> 420.562 60<286.594 423.897> 540 60<256.211 451.443>
VStem: 55 60<191.742 398.789> 174.438 60<220.537 368.406>
LayerCount: 2
Fore
SplineSet
355 600 m 0
 431.729 600 508.609 570.51 567.062 512.062 c 2
 588.438 490.875 l 1
 461.688 364.125 l 1
 440.312 385.312 l 2
 416.623 409.002 385.926 420.562 355 420.562 c 0
 324.074 420.562 293.377 409.002 269.688 385.312 c 0
 245.998 361.623 234.438 330.926 234.438 300 c 0
 234.438 269.074 245.998 226.377 269.688 202.688 c 0
 293.377 178.998 324.074 167.25 355 167.25 c 0
 385.926 167.25 416.623 178.998 440.312 202.688 c 1
 482.688 160.125 l 1
 447.531 124.969 401.189 107.25 355 107.25 c 0
 318.32 107.25 281.576 118.588 250.375 140.812 c 1
 208 98.4375 l 1
 251.213 64.7812 302.945 48 355 48 c 0
 416.465 48 477.695 71.3262 524.688 118.312 c 1
 567.062 75.75 l 1
 508.604 17.3027 431.729 -12 355 -12 c 0
 278.271 -12 201.396 17.3027 142.938 75.75 c 0
 84.4902 134.203 55 223.271 55 300 c 0
 55 376.729 84.4902 453.609 142.938 512.062 c 0
 201.391 570.51 278.271 600 355 600 c 0
355 540 m 0
 293.535 540 232.305 516.674 185.312 469.688 c 0
 138.326 422.695 115 361.465 115 300 c 0
 115 247.928 131.939 184.031 165.625 140.812 c 1
 208 183.188 l 1
 185.699 214.424 174.438 263.262 174.438 300 c 0
 174.438 346.189 192.157 392.531 227.312 427.688 c 0
 262.469 462.844 308.811 480.562 355 480.562 c 0
 391.686 480.562 428.225 468.85 459.438 446.625 c 1
 501.438 488.812 l 1
 458.26 522.375 406.979 540 355 540 c 0
EndSplineSet
Validated: 524289
EndChar

StartChar: D
Encoding: 68 68 21
Width: 686
VWidth: 0
Flags: W
HStem: -0.1875 60<134.5 199.749 259.281 336.812> 102.375 60<259.281 436.562> 421.875 61.125<259.281 366.628> 532.688 60<133 418.458>
VStem: 74.5 60<60 532.688> 199.749 59.532<60 102.375 162.375 421.875> 461.125 60<163.432 338.08> 562.375 60<177.219 390.189>
LayerCount: 2
Fore
SplineSet
73 592.688 m 1
 322.375 592.688 l 2
 487.709 592.688 622.375 458.016 622.375 292.688 c 0
 622.375 215.725 599.729 136.289 554.688 76.3125 c 1
 428.875 76.3125 l 1
 431.447 84.416 433.967 93.0762 436.562 102.375 c 1
 259.281 102.375 l 1
 259.281 59.8125 l 1
 371.875 59.8125 l 1
 336.812 -0.1875 l 1
 74.5 0 l 1
 73 592.688 l 1
133 532.688 m 1
 134.5 60 l 1
 199.749 60 l 1
 198.626 483 l 1
 237.999 483 l 2
 316.709 483 386.594 467.238 438.625 427.5 c 0
 490.656 387.762 521.125 323.596 521.125 242.062 c 0
 521.125 207.592 512.893 161.584 502.375 117.188 c 0
 501.338 112.799 500.242 109.283 499.188 105 c 1
 539.295 153.908 562.375 223.33 562.375 292.688 c 0
 562.375 425.59 455.283 532.688 322.375 532.688 c 2
 133 532.688 l 1
259.281 421.875 m 1
 259.281 162.375 l 1
 450.812 162.375 l 1
 457.035 193.963 461.125 224.139 461.125 242.062 c 0
 461.125 309.65 439.686 351.24 402.438 379.688 c 0
 369.057 405.182 319.773 419.109 259.281 421.875 c 1
EndSplineSet
Validated: 524289
EndChar

StartChar: E
Encoding: 69 69 22
Width: 636
VWidth: 0
Flags: W
HStem: 0 60<133 199.562 259.562 567.062> 170.188 60<133 199.562 259.562 326.125> 288.312 60<133 199.562 259.562 326.125> 414.875 60<133 199.562 259.562 567.062> 533 60<133 199.562 259.562 567.062>
VStem: 73 60<60 170.188 230.188 288.312 348.312 414.875 474.875 533> 199.562 60<60 170.188 230.188 288.312 348.312 414.875 474.875 533> 326.125 60<230.188 288.312>
LayerCount: 2
Fore
SplineSet
73 593 m 1
 567.062 593 l 1
 567.062 533 l 1
 259.562 533 l 1
 259.562 474.875 l 1
 567.062 474.875 l 1
 567.062 414.875 l 1
 259.562 414.875 l 1
 259.562 348.312 l 1
 386.125 348.312 l 1
 386.125 170.188 l 1
 259.562 170.188 l 1
 259.562 60 l 1
 567.062 60 l 1
 567.062 0 l 1
 73 0 l 1
 73 593 l 1
133 533 m 1
 133 474.875 l 1
 199.562 474.875 l 1
 199.562 533 l 1
 133 533 l 1
133 414.875 m 1
 133 348.312 l 1
 199.562 348.312 l 1
 199.562 414.875 l 1
 133 414.875 l 1
133 288.312 m 1
 133 230.188 l 1
 199.562 230.188 l 1
 199.562 288.312 l 1
 133 288.312 l 1
259.562 288.312 m 1
 259.562 230.188 l 1
 326.125 230.188 l 1
 326.125 288.312 l 1
 259.562 288.312 l 1
133 170.188 m 1
 133 60 l 1
 199.562 60 l 1
 199.562 170.188 l 1
 133 170.188 l 1
EndSplineSet
Validated: 524289
EndChar

StartChar: F
Encoding: 70 70 23
Width: 690
VWidth: 0
Flags: W
HStem: 0 60<133.812 191.938> 243.125 60<133.812 189.125 254.75 332.562> 383.75 65.625<136.625 189.125 254.75 332.562> 527.188 65.624<136.625 189.125 254.75 626.938>
VStem: 73.8125 59.9995<60 243.125 449.375 527.188> 189.125 65.625<60 240.312 305.938 383.75 449.375 527.188> 332.562 65.626<305.938 383.75>
LayerCount: 2
Fore
SplineSet
71 592.812 m 1
 626.938 592.812 l 1
 626.938 527.188 l 1
 254.75 527.188 l 1
 254.75 449.375 l 1
 398.188 449.375 l 1
 398.188 240.312 l 1
 251.938 240.312 l 1
 251.938 0 l 1
 73.8125 0 l 1
 73.8125 303.125 l 1
 189.125 303.125 l 1
 189.125 383.75 l 1
 71 383.75 l 1
 71 592.812 l 1
136.625 527.188 m 1
 136.625 449.375 l 1
 189.125 449.375 l 1
 189.125 527.188 l 1
 136.625 527.188 l 1
254.75 383.75 m 1
 254.75 305.938 l 1
 332.562 305.938 l 1
 332.562 383.75 l 1
 254.75 383.75 l 1
133.812 243.125 m 1
 133.812 60 l 1
 191.938 60 l 1
 191.938 243.125 l 1
 133.812 243.125 l 1
EndSplineSet
Validated: 524289
EndChar

StartChar: G
Encoding: 71 71 24
Width: 699
VWidth: 0
Flags: W
HStem: 0 60<257.497 450.273> 135 60<291.475 418.428> 253.125 60<346.562 448.75 511.562 625> 396.562 60<355.831 536.5> 405 60<291.474 534.908> 540 60<257.497 452.996>
VStem: 55 60<202.499 397.501> 190 60<236.475 363.529> 451.562 60<73.2944 166.688>
LayerCount: 2
Fore
SplineSet
355 600 m 4xef80
 469.615 600 569.705 535.441 620.125 440.625 c 6
 643.562 396.562 l 5
 396.25 396.562 l 6xf780
 383.014 401.654 370.674 404.238 355 405 c 4
 296.652 405 250 358.354 250 300 c 4
 250 241.658 296.658 195 355 195 c 4
 396.35 195 431.6 218.695 448.75 253.125 c 5
 346.562 253.125 l 5
 346.562 313.125 l 5
 625 313.125 l 5
 625 253.125 l 5
 511.562 253.125 l 5
 511.562 43.6875 l 5
 495.625 35.25 l 6
 453.684 12.9375 405.742 0 355 0 c 4
 189.666 0 55 134.672 55 300 c 4
 55 465.328 189.666 600 355 600 c 4xef80
355 540 m 4
 222.092 540 115 432.902 115 300 c 4
 115 167.098 222.092 60 355 60 c 4
 389.67 60 421.891 68.5723 451.562 81.75 c 5
 451.562 166.688 l 5
 424.386 146.912 391.064 135 355 135 c 4
 264.227 135 190 209.227 190 300 c 4
 190 390.779 264.232 465 355 465 c 4xef80
 372.742 465 389.605 461.689 405.438 456.562 c 6
 536.5 456.562 l 5
 492.555 507.516 427.797 540 355 540 c 4
EndSplineSet
Validated: 524289
EndChar

StartChar: H
Encoding: 72 72 25
Width: 673
VWidth: 0
Flags: W
HStem: 0 21G<73 132.062 191.124 250.188 418.938 478 537.062 596.125> 0 21G<73 132.062 191.124 250.188 418.938 478 537.062 596.125> 205.5 59.062<250.188 418.938 478 537.062> 323.625 59.063<250.188 418.938 478 537.062> 534.562 59.063<478 537.062>
VStem: 73 59.062<0 593> 191.124 59.064<0 205.5 264.562 323.625 382.688 593> 418.938 59.062<0 205.5 382.688 534.562> 537.062 59.063<0 205.5 382.688 534.562>
LayerCount: 2
Fore
SplineSet
418.938 593.625 m 1xbf80
 596.125 593.625 l 1
 596.125 323.625 l 1
 250.188 323.625 l 1
 250.188 264.562 l 1
 596.125 264.562 l 1
 596.125 0 l 1
 537.062 0 l 1
 537.062 205.5 l 1
 478 205.5 l 1
 478 0 l 1
 418.938 0 l 1
 418.938 205.5 l 1
 250.188 205.5 l 1
 250.188 0 l 1
 191.124 0 l 1
 191.124 593 l 1
 250.188 593 l 1
 250.188 382.688 l 1
 418.938 382.688 l 1
 418.938 593.625 l 1xbf80
73 593 m 1
 132.062 593 l 1
 132.062 0 l 1
 73 0 l 1
 73 593 l 1
478 534.562 m 1
 478 382.688 l 1
 537.062 382.688 l 1
 537.062 534.562 l 1
 478 534.562 l 1
EndSplineSet
Validated: 524289
EndChar

StartChar: I
Encoding: 73 73 26
Width: 327
VWidth: 0
Flags: W
HStem: 0 21G<73 132.062 191.125 250.188> 0 21G<73 132.062 191.125 250.188> 532.562 59.0625<132.062 191.125>
VStem: 73 59.0625<0 532.562> 191.125 59.0625<0 532.562>
LayerCount: 2
Fore
SplineSet
73 591.625 m 1xb8
 250.188 591.625 l 1
 250.188 0 l 1
 191.125 0 l 1
 191.125 532.562 l 1
 132.062 532.562 l 1
 132.062 0 l 1
 73 0 l 1
 73 591.625 l 1xb8
EndSplineSet
Validated: 524289
EndChar

StartChar: J
Encoding: 74 74 27
Width: 577
VWidth: 0
Flags: W
HStem: 166.531 60<137.938 252.312> 539.719 53.062<381.5 440.562>
VStem: 322.438 59.437<50.8438 119.147 175.156 539.719> 440.562 59.063<-9.65625 539.719>
LayerCount: 2
Fore
SplineSet
322.438 592.781 m 1
 499.625 592.781 l 1
 499.625 -9.65625 l 1
 440.562 -9.65625 l 1
 440.562 539.719 l 1
 381.5 539.719 l 1
 381.875 -10 l 1
 343.438 -10 l 2
 214.262 -10 103.895 71.2402 61.8125 186.219 c 2
 47 226.531 l 1
 252.312 226.531 l 1
 261.312 218.094 l 2
 279.301 200.715 299.809 186.225 322.438 175.156 c 1
 322.438 313.033 322.438 454.904 322.438 592.781 c 1
137.938 166.531 m 1
 176.305 102.424 243.324 57.8633 321.875 50.8438 c 1
 321.875 110.469 l 1
 287.48 123.488 256.426 142.607 229.438 166.531 c 1
 137.938 166.531 l 1
EndSplineSet
Validated: 524289
EndChar

StartChar: K
Encoding: 75 75 28
Width: 751
VWidth: 0
Flags: W
HStem: 0 59.5312<477.438 561.438> 573.152 20G<73 132.062 174.249 233.312 390.95 492.062 557.391 654.812> 573.152 20G<73 132.062 174.249 233.312 390.95 492.062 557.391 654.812>
VStem: 73 59.062<0.09375 321.469 405.094 593.152> 174.249 59.063<0.09375 220.219 362.906 387.281 394.781 593.152>
LayerCount: 2
Fore
SplineSet
73 593.152 m 1xd8
 132.062 593.152 l 1
 132.062 405.094 l 1
 174.249 362.906 l 1
 174.249 593.152 l 1
 233.312 593.152 l 1
 233.312 394.781 l 1
 408.625 593.152 l 1
 492.062 593.152 l 1
 313 391.031 l 1
 354.625 349.219 l 1
 575.5 593.152 l 1
 654.812 593.152 l 1
 396.438 307.594 l 1
 704.875 0 l 1
 453.062 0 l 1
 233.312 220.219 l 1
 233.312 0.09375 l 1
 174.249 0.09375 l 1
 174.249 279.281 l 1
 132.062 321.469 l 1
 132.062 0.09375 l 1
 73 0.09375 l 1
 73 593.152 l 1xd8
233.312 387.281 m 1
 233.312 303.844 l 1
 477.438 59.5312 l 1
 561.438 59.1562 l 1
 233.312 387.281 l 1
EndSplineSet
Validated: 524289
EndChar

StartChar: L
Encoding: 76 76 29
Width: 536
VWidth: 0
Flags: W
HStem: 0 60<133 474.25> 126.562 60<268 474.25> 533 60<133 208>
VStem: 73 60<60 533> 208 60<186.562 533>
LayerCount: 2
Fore
SplineSet
73 0 m 1
 73 593 l 5
 268 593 l 5
 268 186.562 l 1
 474.25 186.562 l 1
 474.25 126.562 l 1
 208 126.562 l 1
 208 533 l 5
 133 533 l 5
 133 60 l 1
 474.25 60 l 1
 474.25 0 l 1
 73 0 l 1
EndSplineSet
Validated: 524289
EndChar

StartChar: M
Encoding: 77 77 30
Width: 901
VWidth: 0
Flags: W
HStem: 0 53<681.5 764.938> 636 20G<73.0198 85.1083 669.897 681.841 812.202 824.98>
VStem: 73.0625 59.9995<0 456.5> 216.5 60<0 208.062> 621.5 60<53 207.688 431.75 456.312> 764.938 60<53 456.125>
LayerCount: 2
Fore
SplineSet
73.0625 593 m 1
 73 656 l 1
 377.562 152.938 l 1
 682 656 l 1
 681.5 593 l 1
 681.5 431.75 l 1
 825 656 l 1
 824.938 593 l 1
 824.938 0 l 1
 621.5 0 l 1
 621.5 207.688 l 1
 520.812 33.3125 l 1
 449.188 157.438 l 1
 377.375 33.3125 l 1
 276.5 208.062 l 1
 276.5 0 l 1
 216.5 0 l 1
 216.5 311.75 l 1
 133.062 456.5 l 1
 133.062 0 l 1
 73.0625 0 l 1
 73.0625 593 l 1
621.5 456.312 m 1
 483.688 217.438 l 1
 520.812 153.312 l 1
 621.5 327.688 l 1
 621.5 327.875 l 1
 621.5 456.312 l 1
764.938 456.125 m 1
 681.5 311.375 l 1
 681.5 53 l 1
 764.938 53 l 1
 764.938 456.125 l 1
EndSplineSet
Validated: 524289
EndChar

StartChar: N
Encoding: 78 78 31
Width: 742
VWidth: 0
Flags: W
HStem: 0 60<133 191.125> 0.0625 21G<645.886 664.562> 573.438 20G<486.438 546.438 604.562 664.562> 573.438 20G<486.438 546.438 604.562 664.562>
VStem: 73 60<60 481.5> 191.125 60<60 327.188> 486.438 60<118.5 126.562 211.312 593.438> 604.562 60<145.188 593.438>
LayerCount: 2
Fore
SplineSet
73 658.5 m 5x8f
 486.438 118.5 l 5
 486.438 593.438 l 5
 546.438 593.438 l 5
 546.438 211.312 l 5
 604.562 145.188 l 5
 604.562 593.438 l 5
 664.562 593.438 l 5
 664.562 0.0625 l 5x6f
 546.438 126.562 l 5
 546.438 -58.5 l 5
 251.125 327.188 l 5
 251.125 0 l 5
 73 0 l 5
 73 658.5 l 5x8f
133 481.5 m 5
 133 60 l 5
 191.125 60 l 5x8f
 191.125 405.562 l 5
 133 481.5 l 5
EndSplineSet
Validated: 524289
EndChar

StartChar: O
Encoding: 79 79 32
Width: 718
VWidth: 0
Flags: W
HStem: 0 60<259.097 452.504> 413.438 60<288.406 393.482> 540 60<257.497 435.18>
VStem: 55 60<219.873 397.501> 181.562 60<261.611 366.589> 595 60<202.497 395.906>
LayerCount: 2
Fore
SplineSet
355 600 m 4
 408.771 600 459.461 585.639 503.125 560.812 c 6
 537.438 541.312 l 5
 444.438 448.5 l 5
 464.178 436.611 481.258 420.873 494.875 402.375 c 5
 586.75 494.062 l 5
 607 462.75 l 6
 637.387 415.863 655 359.965 655 300 c 4
 655 134.666 520.334 0 355 0 c 4
 295.035 0 239.143 17.8066 192.25 48.1875 c 6
 160.938 68.4375 l 5
 252.812 160.312 l 5
 234.332 173.865 218.582 190.91 206.688 210.562 c 5
 113.688 117.75 l 5
 94.1875 152.062 l 6
 69.3613 195.738 55 246.234 55 300 c 4
 55 465.328 189.666 600 355 600 c 4
355 540 m 4
 222.092 540 115 432.902 115 300 c 4
 115 271.266 120.578 244.078 129.812 218.625 c 5
 183.812 272.812 l 6
 182.406 281.672 181.562 290.754 181.562 300 c 4
 181.562 395.426 259.562 473.438 355 473.438 c 4
 363.168 473.408 372.848 472.383 382.375 471.188 c 5
 436.375 525.375 l 5
 410.951 534.586 383.699 540 355 540 c 4
355 413.438 m 4
 291.988 413.438 241.562 363 241.562 300 c 4
 241.562 258.873 263.342 223.143 295.75 203.25 c 5
 451.75 359.062 l 5
 431.875 391.559 396.186 413.438 355 413.438 c 4
574.375 396.75 m 5
 258.25 80.8125 l 5
 287.893 67.6582 320.377 60 355 60 c 4
 487.914 60 595 167.092 595 300 c 4
 595 334.529 587.459 367.178 574.375 396.75 c 5
EndSplineSet
Validated: 524289
EndChar

StartChar: P
Encoding: 80 80 33
Width: 592
VWidth: 0
Flags: W
HStem: 0 21G<72 132 198.562 258.562> 0 21G<72 132 198.562 258.562> 540.25 60<132.744 197.757>
VStem: 72 60<0 537.8> 198.562 60<0 191.5 265.375 533.12> 350.438 60<321.696 492.967> 468.562 60<321.051 492.45>
LayerCount: 2
Fore
SplineSet
189.375 600.25 m 0xbe
 207.07 600.508 226.008 599.688 245.25 597.062 c 0
 250.617 596.33 255.943 595.48 261.375 594.438 c 0
 289.061 598.141 327.773 600.824 367.875 595.188 c 0
 405.422 589.908 445.289 577.188 476.812 548.125 c 0
 508.336 519.062 528.562 473.758 528.562 414.625 c 0
 528.562 298.756 462.633 235.867 400.125 210.625 c 0
 338.578 185.77 279.885 190.598 278.062 190.75 c 0
 276.938 190.75 l 1
 258.562 191.5 l 1
 258.562 0 l 1
 198.562 0 l 1
 198.562 540.25 l 1
 170.959 540.508 147.761 537.379 132 534.625 c 1
 132 0 l 1
 72 0 l 1
 72 583.562 l 1
 95.0625 589.188 l 1
 95.0625 589.188 136.295 599.482 189.375 600.25 c 0xbe
373.125 533.312 m 1
 396.246 504.719 410.438 465.355 410.438 416.5 c 0
 410.438 345.93 388.254 294.08 356.438 259.375 c 1
 363.451 261.326 370.518 263.629 377.625 266.5 c 0
 424.805 285.555 468.562 319.557 468.562 414.625 c 0
 468.562 460.961 455.227 486.455 436.125 504.062 c 0
 419.988 518.939 397.688 528.238 373.125 533.312 c 1
260.812 533.125 m 0
 260.139 533.008 259.219 532.867 258.562 532.75 c 2
 258.562 265.375 l 1
 273.434 270.9 287.953 278.6 300.75 289.188 c 0
 328.377 312.045 350.438 347.57 350.438 416.5 c 0
 350.438 462.637 336.703 487.838 316.875 505.562 c 0
 302.18 518.705 282.65 527.635 260.812 533.125 c 0
EndSplineSet
Validated: 524321
EndChar

StartChar: Q
Encoding: 81 81 34
Width: 791
VWidth: 0
Flags: W
HStem: -10 60<257.497 441.044> 99.6885 60.1865<285.363 349.562> 430.312 60<284.461 421.513> 540 60<260.173 449.827>
VStem: 55 60<192.497 388.907> 164.688 60.186<220.363 284.562> 485.312 60<210.073 364.416> 595 60<190.852 388.907>
LayerCount: 2
Fore
SplineSet
355 600 m 0
 520.334 600 655 455.328 655 290 c 0
 655 237.307 640.691 187.988 616.75 144.875 c 1
 743.125 20 l 1
 657.625 20 l 1
 540.438 135.688 l 1
 554.312 156.312 l 2
 580.012 194.539 595 240.354 595 290 c 0
 595 422.902 487.908 540 355 540 c 0
 222.092 540 115 422.902 115 290 c 0
 115 157.092 222.092 50 355 50 c 0
 386.008 50 415.258 56.2168 442.375 66.875 c 1
 403.188 106.062 l 1
 387.754 101.979 371.652 99.6885 355 99.6885 c 0
 250.246 99.6885 164.688 185.246 164.688 290 c 0
 164.688 394.748 250.24 490.312 355 490.312 c 0
 459.754 490.312 545.312 394.748 545.312 290 c 0
 545.312 250.865 533.424 214.35 513.062 184.062 c 1
 463.188 217.438 l 1
 477.145 238.197 485.312 262.982 485.312 290 c 0
 485.312 362.328 427.328 430.312 355 430.312 c 0
 305.266 430.312 262.234 402.879 240.251 362.25 c 1
 241.188 363.188 l 1
 541.938 52.25 l 1
 508.938 32.5625 l 2
 463.949 5.62695 411.156 -10 355 -10 c 0
 189.666 -10 55 124.666 55 290 c 0
 55 455.328 189.666 600 355 600 c 0
224.874 284.562 m 1
 227.617 216.582 281.582 162.623 349.562 159.875 c 1
 224.874 284.562 l 1
EndSplineSet
Validated: 524289
EndChar

StartChar: R
Encoding: 82 82 35
Width: 757
VWidth: 0
Flags: W
HStem: -1 59.0625<502.75 571.188> 542.312 55.876<132.062 190.938>
VStem: 73 59.062<0.625 542.178> 190.938 59.25<0.625 226.188 232.562 537.812> 402.062 58.876<306.155 474.263> 528.438 59.25<294.558 474.37>
LayerCount: 2
Fore
SplineSet
296.875 602.5 m 0
 324.93 602.975 360.297 601.328 398.688 594.438 c 0
 442.949 586.492 489.121 571.48 525.812 540.438 c 0
 562.504 509.394 587.688 461.102 587.688 398.875 c 0
 587.688 312.502 559.305 257.389 528.812 225.625 c 0
 521.23 217.732 513.59 211.059 506.125 205.75 c 1
 713.688 -1 l 1
 478.375 -1 l 1
 250.188 226.188 l 1
 250.188 0.625 l 1
 190.938 0.625 l 1
 190.938 542.312 l 1
 165.883 543.127 146.4 542.078 132.062 540.625 c 1
 132.062 0.625 l 1
 73 0.625 l 1
 73 592.938 l 1
 97.9375 596.875 l 1
 97.9375 596.875 163.68 606.004 238.938 598.188 c 0
 248.172 599.43 268.82 602.025 296.875 602.5 c 0
250.188 537.812 m 2
 250.188 232.562 l 1
 299.125 242.312 l 1
 299.125 242.312 323.201 247.094 349.188 268.75 c 0
 375.174 290.406 402.062 326.494 402.062 398.875 c 0
 402.062 446.336 386.008 473.898 361 495.062 c 0
 335.992 516.227 299.816 529.492 261.812 536.312 c 0
 257.893 537.016 254.032 537.455 250.188 537.812 c 2
408.25 530.688 m 1
 439.598 499.655 460.938 455.447 460.938 398.875 c 0
 460.938 310.943 424.545 254.266 387.25 223.188 c 0
 376.961 214.615 366.766 208.305 357.062 202.938 c 1
 502.75 58.0625 l 1
 571.188 58.0625 l 1
 398.875 229.375 l 1
 449.5 241.938 l 1
 449.5 241.938 465.93 245.336 486.062 266.312 c 0
 506.195 287.283 528.438 324.936 528.438 398.875 c 0
 528.438 446.336 512.57 473.898 487.562 495.062 c 0
 467.137 512.348 438.502 523.158 408.25 530.688 c 1
EndSplineSet
Validated: 524321
EndChar

StartChar: S
Encoding: 83 83 36
Width: 564
VWidth: 0
Flags: W
HStem: -9 60<235.41 389.865> 142.875 60<49.375 129.069> 178.406 60<189.758 364.417> 305.062 60<213.235 382.474> 427.125 60<399.23 488.688> 540 60<208.309 319.589>
VStem: 102.812 60<265.561 344.153> 121.188 60<103.477 143.25 400.554 512.75> 443.125 60<168.531 243.272>
LayerCount: 2
Fore
SplineSet
263.875 600 m 0xdd80
 332.195 600 391.293 551.818 405.438 487.125 c 1
 488.688 487.125 l 1
 488.688 427.125 l 1
 348.812 427.125 l 1
 348.812 457.125 l 2
 348.812 502.482 309.918 540 263.875 540 c 0
 217.85 540 181.188 503.156 181.188 457.125 c 0xdd80
 181.188 411.076 217.85 365.062 263.875 365.062 c 2
 312.812 365.062 l 2
 417.625 364.676 503.125 278.344 503.125 173.438 c 0
 503.125 68.3086 415.486 -9 312.25 -9 c 2
 312.062 -9 l 2
 219.098 -9 139.469 54 124.374 143.25 c 1
 49.375 142.875 l 1
 49 202.875 l 1
 165.812 203.625 l 1
 127.949 229.371 102.812 272.613 102.812 321.562 c 0xde80
 102.812 351.75 112.357 380.139 128.501 403.312 c 1
 123.783 417.422 121.188 441.475 121.188 457.125 c 0
 121.188 535.582 185.418 600 263.875 600 c 0xdd80
166.188 344.812 m 1
 164.26 338.039 163.188 329.736 162.812 321.562 c 0
 162.812 275.514 199.469 238.406 245.501 238.406 c 2
 294.625 238.406 l 2xbe80
 354.484 238.184 408.004 209.842 442.938 166.312 c 1
 443.055 168.662 443.125 171.035 443.125 173.438 c 0
 443.125 246.158 384.959 305.062 312.25 305.062 c 2
 263.125 305.062 l 2
 225.66 305.25 191.629 320.842 166.188 344.812 c 1
181.188 194.438 m 1xbd80
 181.188 173.438 l 2
 181.188 100.74 237.637 51 312.25 51 c 0
 355.246 51 392.154 67.4766 415.75 95.4385 c 1
 396.543 143.748 349.398 178.406 293.875 178.406 c 2
 245.501 178.406 l 2
 222.385 178.406 200.559 184.564 181.188 194.438 c 1xbd80
EndSplineSet
Validated: 524289
EndChar

StartChar: T
Encoding: 84 84 37
Width: 692
VWidth: 0
Flags: W
HStem: 0 21G<239.938 299.938 383.375 443.375> 0 21G<239.938 299.938 383.375 443.375> 413.875 60.563<59 239.938 299.938 383.375 443.375 569> 532 60<59 239.938 299.938 383.375 443.375 569>
VStem: 239.938 60<0 413.875 474.438 532> 383.375 60<0 412.938 474.438 532> 569 60<472.938 532>
LayerCount: 2
Fore
SplineSet
59 592 m 1xbe
 629 592 l 1
 629 412.938 l 1
 443.375 412.938 l 1
 443.375 0 l 1
 383.375 0 l 1
 383.375 412.938 l 1
 383.375 413.875 l 1
 299.938 413.875 l 1
 299.938 0 l 1
 239.938 0 l 1
 239.938 413.875 l 1
 59 413.875 l 1
 59 473.875 l 1
 239.938 474.438 l 1
 239.938 532 l 1
 59 532 l 1
 59 592 l 1xbe
299.938 532 m 1
 299.938 474.438 l 1
 383.375 474.438 l 1
 383.375 532 l 1
 299.938 532 l 1
443.375 532 m 1
 443.375 472.938 l 1
 569 472.938 l 1
 569 532 l 1
 443.375 532 l 1
EndSplineSet
Validated: 524289
EndChar

StartChar: U
Encoding: 85 85 38
Width: 738
VWidth: 0
Flags: W
HStem: -10 60<266.22 451.173> 533 60<126 175.688>
VStem: 66 60<190.885 533> 175.688 60<274.258 533> 479.438 60<275.473 591> 606 60<192.507 591>
LayerCount: 2
Fore
SplineSet
66 593 m 1
 235.688 593 l 1
 235.688 375.938 l 2
 235.688 286.154 284.883 198.26 357.562 157.062 c 1
 430.242 198.26 479.438 286.137 479.438 375.938 c 2
 479.438 591 l 1
 539.438 591 l 1
 539.438 375.938 l 2
 539.438 280.998 495.094 186.189 426 131.188 c 1
 442.031 127.807 458.602 125.938 475.688 125.938 c 0
 502.354 125.938 527.918 130.314 551.812 138.312 c 1
 585.68 179.686 606 232.25 606 290 c 2
 606 591 l 1
 666 591 l 1
 666 290 l 2
 666 214.742 638.027 145.783 592.125 93.125 c 0
 537.17 30.0723 456.1 -10 366 -10 c 0
 279.955 -10 202.049 26.4805 147.375 84.6875 c 0
 96.9844 138.312 66 210.711 66 290 c 2
 66 593 l 1
126 533 m 1
 126 290 l 2
 126 226.291 150.674 168.916 191.062 125.938 c 0
 234.879 79.291 296.854 50 366 50 c 0
 396.762 50 425.496 56.7559 452.438 67.25 c 1
 414.035 70.2207 377.467 80.0117 344.438 96.125 c 0
 244.5 144.828 175.688 257.59 175.688 375.938 c 2
 175.688 533 l 1
 126 533 l 1
EndSplineSet
Validated: 524289
EndChar

StartChar: V
Encoding: 86 86 39
Width: 791
VWidth: 0
Flags: W
HStem: 524.688 67.5<157.188 245.5>
LayerCount: 2
Fore
SplineSet
49 592.188 m 1
 275.688 592.188 l 1
 393.625 379.812 l 1
 511.75 592.188 l 1
 580.938 592.188 l 1
 393.625 259.812 l 1
 245.5 524.688 l 1
 157.188 524.688 l 1
 393.625 107 l 1
 669.25 592.188 l 1
 738.438 592.188 l 1
 393.625 -13 l 1
 49 592.188 l 1
EndSplineSet
Validated: 524289
EndChar

StartChar: W
Encoding: 87 87 40
Width: 1104
VWidth: 0
Flags: W
HStem: 524.688 67.5<157.188 245.501>
LayerCount: 2
Fore
SplineSet
49 592.188 m 1
 275.688 592.188 l 1
 434.688 316.188 l 1
 393.812 261.812 l 1
 245.501 524.688 l 1
 157.188 524.688 l 1
 393.812 109 l 1
 669.25 592.188 l 1
 738.438 592.188 l 1
 393.812 -11 l 1
 49 592.188 l 1
823.938 592.188 m 1
 893.125 592.188 l 1
 706 261.812 l 1
 652.562 354.25 l 1
 692.125 405.812 l 1
 706 381.812 l 1
 823.938 592.188 l 1
981.438 592.188 m 1
 1050.62 592.188 l 1
 706 -11 l 1
 586.562 198.062 l 1
 620.312 257.125 l 1
 706 109 l 1
 981.438 592.188 l 1
EndSplineSet
Validated: 524289
EndChar

StartChar: X
Encoding: 88 88 41
Width: 765
VWidth: 0
Flags: W
HStem: 0 60<499.688 599.25> 532.062 60<161.625 261>
LayerCount: 2
Fore
SplineSet
57.5625 592.062 m 1
 295.688 592.062 l 1
 380.438 449.25 l 1
 474.875 591.25 l 1
 544.25 591.25 l 1
 295.875 183.188 l 1
 264.75 237.375 l 1
 117.625 0.25 l 1
 49 0.25 l 1
 229.875 297.75 l 1
 57.5625 592.062 l 1
640.625 591.25 m 1
 709.625 591.25 l 1
 531 298.125 l 1
 703.125 0 l 1
 465 0 l 1
 380.438 146.812 l 1
 282.25 0.25 l 1
 213.062 0.25 l 1
 464.812 412.875 l 1
 496.125 358.5 l 1
 640.625 591.25 l 1
161.625 532.062 m 1
 296.062 303.188 l 1
 345.75 389.25 l 1
 261 532.062 l 1
 161.625 532.062 l 1
464.812 292.875 m 1
 414.938 206.812 l 1
 499.688 60 l 1
 599.25 60 l 1
 496.688 237.75 l 1
 464.812 292.875 l 1
EndSplineSet
Validated: 524289
EndChar

StartChar: Y
Encoding: 89 89 42
Width: 801
VWidth: 0
Flags: W
HStem: 0 21G<314.5 376.562 424.188 484.188> 0 21G<314.5 376.562 424.188 484.188> 571 20G<49 153.922 197.688 302.625 498.125 603.062 644.75 749.688> 571 20G<49 153.922 197.688 302.625 498.125 603.062 644.75 749.688>
VStem: 314.5 62.062<0 218.062 300.75 325.688> 424.188 60<0 265.688>
LayerCount: 2
Fore
SplineSet
49 591 m 1xac
 133.938 591 l 1
 374.5 350.25 l 1
 374.5 300.75 l 1
 664.75 591 l 1
 749.688 591 l 1
 484.188 325.688 l 1
 484.188 0 l 1
 424.188 0 l 1
 424.188 265.688 l 1
 376.562 218.062 l 1
 376.562 0 l 1
 314.5 0 l 1
 314.5 325.688 l 1
 49 591 l 1xac
197.688 591 m 1
 282.625 591 l 1
 400.375 473.25 l 1
 518.125 591 l 1
 603.062 591 l 1
 400.375 388.125 l 1
 197.688 591 l 1
EndSplineSet
Validated: 524289
EndChar

StartChar: Z
Encoding: 90 90 43
Width: 693
VWidth: 0
Flags: W
HStem: 0 60.75<318.031 625.219> 112.688 60<383.656 625.219> 428.312 60<59 314.656> 529.75 61.781<59 373.906>
LayerCount: 2
Fore
SplineSet
564.219 591.531 m 1
 633.406 591.531 l 1
 383.656 172.688 l 1
 625.219 172.688 l 1
 625.219 112.688 l 1
 348.594 112.688 l 1
 318.031 60.75 l 1
 625.219 60.75 l 1
 625.219 0 l 1
 213.219 0 l 1
 564.219 591.531 l 1
59 591.531 m 5
 478.344 591.531 l 1
 130.344 0 l 1
 66.5938 0 l 1
 314.656 428.312 l 1
 59 428.312 l 5
 59 488.312 l 5
 349.719 488.312 l 1
 373.906 529.75 l 1
 59 529.75 l 5
 59 591.531 l 5
EndSplineSet
Validated: 524289
EndChar

StartChar: backslash
Encoding: 92 92 44
Width: 788
VWidth: 0
Flags: W
HStem: 0 21G<308.312 370.375 418 478> 0 21G<308.312 370.375 418 478> 248.812 60<152.688 308.312 478 650.5> 358.5 60<152.688 215.5 571.188 650.5> 571 20G<43 147.734 191.5 296.438 491.938 596.875 638.75 743.5> 571 20G<43 147.734 191.5 296.438 491.938 596.875 638.75 743.5>
VStem: 308.312 62.063<0 217.875 308.812 325.688> 418 60<0 248.812>
LayerCount: 2
Fore
SplineSet
43 591 m 1xbb
 127.75 591 l 1
 368.312 350.25 l 1
 368.312 300.562 l 1
 658.75 591 l 1
 743.5 591 l 1
 571.188 418.5 l 1
 650.5 418.5 l 1
 650.5 358.5 l 1
 511.188 358.5 l 1
 478 325.312 l 1
 478 308.812 l 1
 650.5 308.812 l 1
 650.5 248.812 l 1
 478 248.812 l 1
 478 0 l 1
 418 0 l 1
 418 265.5 l 1
 370.375 217.875 l 1
 370.375 0 l 1
 308.312 0 l 1
 308.312 248.812 l 1
 152.688 248.812 l 1
 152.688 308.812 l 1
 308.312 308.812 l 1
 308.312 325.688 l 1
 275.5 358.5 l 1
 152.688 358.5 l 1
 152.688 418.5 l 1
 215.5 418.5 l 1
 43 591 l 1xbb
191.5 591 m 1
 276.438 591 l 1
 394.188 473.25 l 1
 511.938 591 l 1
 596.875 591 l 1
 394.188 388.125 l 1
 191.5 591 l 1
EndSplineSet
Validated: 524289
EndChar

StartChar: guillemotleft
Encoding: 171 171 45
Width: 991
VWidth: 0
Flags: W
LayerCount: 2
Fore
SplineSet
919.062 600.875 m 5
 506 362.562 l 5
 660.875 273.125 l 5
 506 183.875 l 5
 918.875 -54.625 l 5
 918.875 193.438 l 5
 780.875 273.125 l 5
 919.062 352.812 l 5
 919.062 600.875 l 5
859.062 497 m 5
 859.062 387.5 l 5
 720.875 307.812 l 5
 626 362.562 l 5
 859.062 497 l 5
720.875 238.438 m 5
 858.875 158.75 l 5
 858.875 49.25 l 5
 626 183.875 l 5
 720.875 238.438 l 5
468.062 617.875 m 5
 55 379.562 l 5
 209.875 290.125 l 5
 55 200.875 l 5
 467.875 -37.625 l 5
 467.875 210.438 l 5
 329.875 290.125 l 5
 468.062 369.812 l 5
 468.062 617.875 l 5
408.062 514 m 5
 408.062 404.5 l 5
 269.875 324.812 l 5
 175 379.562 l 5
 408.062 514 l 5
269.875 255.438 m 5
 407.875 175.75 l 5
 407.875 66.25 l 5
 175 200.875 l 5
 269.875 255.438 l 5
EndSplineSet
Validated: 524297
EndChar

StartChar: guillemotright
Encoding: 187 187 46
Width: 991
VWidth: 0
Flags: W
HStem: 580.875 20G<73 107.666> 580.875 20G<73 107.666 524 558.666>
VStem: 73.1875 60.0005<49.25 158.75 387.5 497> 524.188 60<66.25 175.75 404.5 514>
LayerCount: 2
Fore
SplineSet
73 600.875 m 5xb0
 486.062 362.562 l 5
 331.188 273.125 l 5
 486.062 183.875 l 5
 73.1875 -54.625 l 5
 73.1875 193.438 l 5
 211.188 273.125 l 5
 73 352.812 l 5
 73 600.875 l 5xb0
133 497 m 5
 133 387.5 l 5
 271.188 307.812 l 5
 366.062 362.562 l 5
 133 497 l 5
271.188 238.438 m 5
 133.188 158.75 l 5
 133.188 49.25 l 5
 366.062 183.875 l 5
 271.188 238.438 l 5
524 617.875 m 5
 937.062 379.562 l 5
 782.188 290.125 l 5
 937.062 200.875 l 5
 524.188 -37.625 l 5
 524.188 210.438 l 5
 662.188 290.125 l 5
 524 369.812 l 5
 524 617.875 l 5
584 514 m 5
 584 404.5 l 5
 722.188 324.812 l 5
 817.062 379.562 l 5
 584 514 l 5
722.188 255.438 m 5
 584.188 175.75 l 5
 584.188 66.25 l 5
 817.062 200.875 l 5
 722.188 255.438 l 5
EndSplineSet
Validated: 524289
EndChar

StartChar: yen
Encoding: 165 165 47
Width: 788
VWidth: 0
Flags: W
HStem: 0 21G<308.312 370.375 418 478> 0 21G<308.312 370.375 418 478> 248.812 60<152.688 308.312 478 650.5> 358.5 60<152.688 215.5 571.188 650.5> 571 20G<43 147.734 191.5 296.438 491.938 596.875 638.75 743.5> 571 20G<43 147.734 191.5 296.438 491.938 596.875 638.75 743.5>
VStem: 308.312 62.063<0 217.875 308.812 325.688> 418 60<0 248.812>
LayerCount: 2
Fore
SplineSet
43 591 m 1xbb
 127.75 591 l 1
 368.312 350.25 l 1
 368.312 300.562 l 1
 658.75 591 l 1
 743.5 591 l 1
 571.188 418.5 l 1
 650.5 418.5 l 1
 650.5 358.5 l 1
 511.188 358.5 l 1
 478 325.312 l 1
 478 308.812 l 1
 650.5 308.812 l 1
 650.5 248.812 l 1
 478 248.812 l 1
 478 0 l 1
 418 0 l 1
 418 265.5 l 1
 370.375 217.875 l 1
 370.375 0 l 1
 308.312 0 l 1
 308.312 248.812 l 1
 152.688 248.812 l 1
 152.688 308.812 l 1
 308.312 308.812 l 1
 308.312 325.688 l 1
 275.5 358.5 l 1
 152.688 358.5 l 1
 152.688 418.5 l 1
 215.5 418.5 l 1
 43 591 l 1xbb
191.5 591 m 1
 276.438 591 l 1
 394.188 473.25 l 1
 511.938 591 l 1
 596.875 591 l 1
 394.188 388.125 l 1
 191.5 591 l 1
EndSplineSet
Validated: 524289
EndChar

StartChar: a
Encoding: 97 97 48
Width: 812
VWidth: 0
Flags: W
HStem: 0.25 60<554.562 655.812> 636 20G<383.118 404.937>
LayerCount: 2
Fore
SplineSet
393.688 656 m 1
 762.5 0.25 l 1
 518.562 0.25 l 1
 393.688 240.688 l 1
 287 0 l 1
 217.625 0 l 1
 393.688 360.688 l 1
 554.562 60.25 l 1
 655.812 60.25 l 1
 393.688 536 l 1
 116.375 0 l 1
 47 0 l 1
 393.688 656 l 1
EndSplineSet
Validated: 524289
EndChar

StartChar: b
Encoding: 98 98 49
Width: 639
VWidth: 0
Flags: W
HStem: 0 58.5<133 199.562 259.562 441.439> 142.312 60<259.562 340.291> 375.375 59.906<259.562 309.033> 539.906 60.094<133 199.562 259.562 377.366>
VStem: 73 60<58.5 539.906> 199.562 60<58.5 142.312 202.312 375.375 435.281 539.906> 311.312 60<326.639 373.541> 351.438 60<214.367 295.456> 424.562 60<388.968 493.784> 517.375 60<134.359 297.923>
LayerCount: 2
Fore
SplineSet
73 600 m 5xfcc0
 312.062 600 l 6
 407.031 600 484.562 522.65 484.562 427.688 c 4
 484.562 417.732 483.572 407.941 481.938 398.438 c 5
 539.459 358.928 577.375 292.676 577.375 217.875 c 4
 577.375 106.535 496.797 12.2051 388.188 0 c 5
 73 0 l 5
 73 600 l 5xfcc0
312.062 539.906 m 6
 259.562 539.906 l 5
 259.562 435.281 l 5
 279.812 435.281 l 6
 330.021 435.281 371.312 394.096 371.312 343.875 c 4xfec0
 371.312 342.246 370.832 340.799 370.75 339.188 c 4
 395.383 318.668 411.438 288.211 411.438 253.875 c 4xfdc0
 411.438 191.367 358.34 142.312 297.062 142.312 c 6
 259.562 142.312 l 5
 259.562 58.5 l 5
 364.562 58.875 l 6
 452.734 58.875 517.375 128.525 517.375 217.875 c 4
 517.375 278.701 483.584 331.107 433.75 357.938 c 6
 411.625 369.75 l 5
 419.125 393.562 l 6
 422.564 404.355 424.562 415.74 424.562 427.688 c 4
 424.562 490.225 374.605 539.906 312.062 539.906 c 6
133 539.906 m 5
 133 58.5 l 5
 199.562 58.5 l 5
 199.562 539.906 l 5
 133 539.906 l 5
259.562 375.375 m 5
 259.562 202.312 l 5
 297.062 202.312 l 6
 325.92 202.312 351.438 226.26 351.438 253.875 c 4xfdc0
 351.438 273.727 340.527 290.537 324.438 299.25 c 6
 302.688 311.062 l 5
 310 334.688 l 6
 310.902 337.611 311.312 340.588 311.312 343.875 c 4
 311.312 361.664 297.602 375.375 279.812 375.375 c 6
 259.562 375.375 l 5
EndSplineSet
Validated: 524289
EndChar

StartChar: c
Encoding: 99 99 50
Width: 639
VWidth: 0
Flags: W
HStem: -12 60<255.507 453.788> 107.25 60<286.035 423.406> 420.562 60<286.594 423.897> 540 60<256.211 451.443>
VStem: 55 60<191.742 398.789> 174.438 60<220.537 368.406>
LayerCount: 2
Fore
SplineSet
355 600 m 0
 431.729 600 508.609 570.51 567.062 512.062 c 2
 588.438 490.875 l 1
 461.688 364.125 l 1
 440.312 385.312 l 2
 416.623 409.002 385.926 420.562 355 420.562 c 0
 324.074 420.562 293.377 409.002 269.688 385.312 c 0
 245.998 361.623 234.438 330.926 234.438 300 c 0
 234.438 269.074 245.998 226.377 269.688 202.688 c 0
 293.377 178.998 324.074 167.25 355 167.25 c 0
 385.926 167.25 416.623 178.998 440.312 202.688 c 1
 482.688 160.125 l 1
 447.531 124.969 401.189 107.25 355 107.25 c 0
 318.32 107.25 281.576 118.588 250.375 140.812 c 1
 208 98.4375 l 1
 251.213 64.7812 302.945 48 355 48 c 0
 416.465 48 477.695 71.3262 524.688 118.312 c 1
 567.062 75.75 l 1
 508.604 17.3027 431.729 -12 355 -12 c 0
 278.271 -12 201.396 17.3027 142.938 75.75 c 0
 84.4902 134.203 55 223.271 55 300 c 0
 55 376.729 84.4902 453.609 142.938 512.062 c 0
 201.391 570.51 278.271 600 355 600 c 0
355 540 m 0
 293.535 540 232.305 516.674 185.312 469.688 c 0
 138.326 422.695 115 361.465 115 300 c 0
 115 247.928 131.939 184.031 165.625 140.812 c 1
 208 183.188 l 1
 185.699 214.424 174.438 263.262 174.438 300 c 0
 174.438 346.189 192.157 392.531 227.312 427.688 c 0
 262.469 462.844 308.811 480.562 355 480.562 c 0
 391.686 480.562 428.225 468.85 459.438 446.625 c 1
 501.438 488.812 l 1
 458.26 522.375 406.979 540 355 540 c 0
EndSplineSet
Validated: 524289
EndChar

StartChar: d
Encoding: 100 100 51
Width: 686
VWidth: 0
Flags: W
HStem: -0.1875 60<134.5 199.749 259.281 336.812> 102.375 60<259.281 436.562> 421.875 61.125<259.281 366.628> 532.688 60<133 418.458>
VStem: 74.5 60<60 532.688> 199.749 59.532<60 102.375 162.375 421.875> 461.125 60<163.432 338.08> 562.375 60<177.219 390.189>
LayerCount: 2
Fore
SplineSet
73 592.688 m 1
 322.375 592.688 l 2
 487.709 592.688 622.375 458.016 622.375 292.688 c 0
 622.375 215.725 599.729 136.289 554.688 76.3125 c 1
 428.875 76.3125 l 1
 431.447 84.416 433.967 93.0762 436.562 102.375 c 1
 259.281 102.375 l 1
 259.281 59.8125 l 1
 371.875 59.8125 l 1
 336.812 -0.1875 l 1
 74.5 0 l 1
 73 592.688 l 1
133 532.688 m 1
 134.5 60 l 1
 199.749 60 l 1
 198.626 483 l 1
 237.999 483 l 2
 316.709 483 386.594 467.238 438.625 427.5 c 0
 490.656 387.762 521.125 323.596 521.125 242.062 c 0
 521.125 207.592 512.893 161.584 502.375 117.188 c 0
 501.338 112.799 500.242 109.283 499.188 105 c 1
 539.295 153.908 562.375 223.33 562.375 292.688 c 0
 562.375 425.59 455.283 532.688 322.375 532.688 c 2
 133 532.688 l 1
259.281 421.875 m 1
 259.281 162.375 l 1
 450.812 162.375 l 1
 457.035 193.963 461.125 224.139 461.125 242.062 c 0
 461.125 309.65 439.686 351.24 402.438 379.688 c 0
 369.057 405.182 319.773 419.109 259.281 421.875 c 1
EndSplineSet
Validated: 524289
EndChar

StartChar: e
Encoding: 101 101 52
Width: 531
VWidth: 0
Flags: W
HStem: 583.516 20G<382.302 428.5>
VStem: 401.969 60<245.641 346.641>
LayerCount: 2
Fore
SplineSet
416.969 -11 m 1
 49 201.344 l 1
 203.923 301.641 l 1
 49 391.172 l 1
 94 417.188 l 1
 416.969 603.516 l 1
 446.969 551.484 l 1
 169 391.172 l 1
 263.923 336.328 l 1
 461.969 450.703 l 1
 461.969 141.812 l 1
 263.923 255.953 l 1
 169 201.344 l 1
 446.969 40.7969 l 1
 416.969 -11 l 1
401.969 245.641 m 1
 401.969 346.641 l 1
 323.923 301.641 l 1
 401.969 245.641 l 1
EndSplineSet
Validated: 524289
EndChar

StartChar: f
Encoding: 102 102 53
Width: 690
VWidth: 0
Flags: W
HStem: 0 60<133.812 191.938> 243.125 60<133.812 189.125 254.75 332.562> 383.75 65.625<136.625 189.125 254.75 332.562> 527.188 65.624<136.625 189.125 254.75 626.938>
VStem: 73.8125 59.9995<60 243.125 449.375 527.188> 189.125 65.625<60 240.312 305.938 383.75 449.375 527.188> 332.562 65.626<305.938 383.75>
LayerCount: 2
Fore
SplineSet
71 592.812 m 1
 626.938 592.812 l 1
 626.938 527.188 l 1
 254.75 527.188 l 1
 254.75 449.375 l 1
 398.188 449.375 l 1
 398.188 240.312 l 1
 251.938 240.312 l 1
 251.938 0 l 1
 73.8125 0 l 1
 73.8125 303.125 l 1
 189.125 303.125 l 1
 189.125 383.75 l 1
 71 383.75 l 1
 71 592.812 l 1
136.625 527.188 m 1
 136.625 449.375 l 1
 189.125 449.375 l 1
 189.125 527.188 l 1
 136.625 527.188 l 1
254.75 383.75 m 1
 254.75 305.938 l 1
 332.562 305.938 l 1
 332.562 383.75 l 1
 254.75 383.75 l 1
133.812 243.125 m 1
 133.812 60 l 1
 191.938 60 l 1
 191.938 243.125 l 1
 133.812 243.125 l 1
EndSplineSet
Validated: 524289
EndChar

StartChar: g
Encoding: 103 103 54
Width: 699
VWidth: 0
Flags: W
HStem: 0 60<257.497 450.273> 135 60<291.475 418.428> 253.125 60<346.562 448.75 511.562 625> 396.562 60<355.831 536.5> 405 60<291.474 534.908> 540 60<257.497 452.996>
VStem: 55 60<202.499 397.501> 190 60<236.475 363.529> 451.562 60<73.2944 166.688>
LayerCount: 2
Fore
SplineSet
355 600 m 4xef80
 469.615 600 569.705 535.441 620.125 440.625 c 6
 643.562 396.562 l 5
 396.25 396.562 l 6xf780
 383.014 401.654 370.674 404.238 355 405 c 4
 296.652 405 250 358.354 250 300 c 4
 250 241.658 296.658 195 355 195 c 4
 396.35 195 431.6 218.695 448.75 253.125 c 5
 346.562 253.125 l 5
 346.562 313.125 l 5
 625 313.125 l 5
 625 253.125 l 5
 511.562 253.125 l 5
 511.562 43.6875 l 5
 495.625 35.25 l 6
 453.684 12.9375 405.742 0 355 0 c 4
 189.666 0 55 134.672 55 300 c 4
 55 465.328 189.666 600 355 600 c 4xef80
355 540 m 4
 222.092 540 115 432.902 115 300 c 4
 115 167.098 222.092 60 355 60 c 4
 389.67 60 421.891 68.5723 451.562 81.75 c 5
 451.562 166.688 l 5
 424.386 146.912 391.064 135 355 135 c 4
 264.227 135 190 209.227 190 300 c 4
 190 390.779 264.232 465 355 465 c 4xef80
 372.742 465 389.605 461.689 405.438 456.562 c 6
 536.5 456.562 l 5
 492.555 507.516 427.797 540 355 540 c 4
EndSplineSet
Validated: 524289
EndChar

StartChar: h
Encoding: 104 104 55
Width: 673
VWidth: 0
Flags: W
HStem: 0 21G<73 132.062 191.124 250.188 418.938 478 537.062 596.125> 0 21G<73 132.062 191.124 250.188 418.938 478 537.062 596.125> 205.5 59.062<250.188 418.938 478 537.062> 323.625 59.063<250.188 418.938 478 537.062> 534.562 59.063<478 537.062>
VStem: 73 59.062<0 593> 191.124 59.064<0 205.5 264.562 323.625 382.688 593> 418.938 59.062<0 205.5 382.688 534.562> 537.062 59.063<0 205.5 382.688 534.562>
LayerCount: 2
Fore
SplineSet
418.938 593.625 m 1xbf80
 596.125 593.625 l 1
 596.125 323.625 l 1
 250.188 323.625 l 1
 250.188 264.562 l 1
 596.125 264.562 l 1
 596.125 0 l 1
 537.062 0 l 1
 537.062 205.5 l 1
 478 205.5 l 1
 478 0 l 1
 418.938 0 l 1
 418.938 205.5 l 1
 250.188 205.5 l 1
 250.188 0 l 1
 191.124 0 l 1
 191.124 593 l 1
 250.188 593 l 1
 250.188 382.688 l 1
 418.938 382.688 l 1
 418.938 593.625 l 1xbf80
73 593 m 1
 132.062 593 l 1
 132.062 0 l 1
 73 0 l 1
 73 593 l 1
478 534.562 m 1
 478 382.688 l 1
 537.062 382.688 l 1
 537.062 534.562 l 1
 478 534.562 l 1
EndSplineSet
Validated: 524289
EndChar

StartChar: i
Encoding: 105 105 56
Width: 327
VWidth: 0
Flags: W
HStem: 0 21G<73 132.062 191.125 250.188> 0 21G<73 132.062 191.125 250.188> 532.562 59.063<132.062 191.125>
VStem: 73 59.062<0 532.562> 191.125 59.063<0 532.562>
LayerCount: 2
Fore
SplineSet
73 591.625 m 1xb8
 250.188 591.625 l 1
 250.188 0 l 1
 191.125 0 l 1
 191.125 532.562 l 1
 132.062 532.562 l 1
 132.062 0 l 1
 73 0 l 1
 73 591.625 l 1xb8
EndSplineSet
Validated: 524289
EndChar

StartChar: j
Encoding: 106 106 57
Width: 577
VWidth: 0
Flags: W
HStem: 166.531 60<137.938 252.312> 539.719 53.062<381.5 440.562>
VStem: 322.438 59.437<50.8438 119.147 175.156 539.719> 440.562 59.063<-9.65625 539.719>
LayerCount: 2
Fore
SplineSet
322.438 592.781 m 1
 499.625 592.781 l 1
 499.625 -9.65625 l 1
 440.562 -9.65625 l 1
 440.562 539.719 l 1
 381.5 539.719 l 1
 381.875 -10 l 1
 343.438 -10 l 2
 214.262 -10 103.895 71.2402 61.8125 186.219 c 2
 47 226.531 l 1
 252.312 226.531 l 1
 261.312 218.094 l 2
 279.301 200.715 299.809 186.225 322.438 175.156 c 1
 322.438 313.033 322.438 454.904 322.438 592.781 c 1
137.938 166.531 m 1
 176.305 102.424 243.324 57.8633 321.875 50.8438 c 1
 321.875 110.469 l 1
 287.48 123.488 256.426 142.607 229.438 166.531 c 1
 137.938 166.531 l 1
EndSplineSet
Validated: 524289
EndChar

StartChar: k
Encoding: 107 107 58
Width: 751
VWidth: 0
Flags: W
HStem: 0 59.5312<477.438 561.438> 573.152 20G<73 132.062 174.249 233.312 390.95 492.062 557.391 654.812> 573.152 20G<73 132.062 174.249 233.312 390.95 492.062 557.391 654.812>
VStem: 73 59.062<0.09375 321.469 405.094 593.152> 174.249 59.063<0.09375 220.219 362.906 387.281 394.781 593.152>
LayerCount: 2
Fore
SplineSet
73 593.152 m 1xd8
 132.062 593.152 l 1
 132.062 405.094 l 1
 174.249 362.906 l 1
 174.249 593.152 l 1
 233.312 593.152 l 1
 233.312 394.781 l 1
 408.625 593.152 l 1
 492.062 593.152 l 1
 313 391.031 l 1
 354.625 349.219 l 1
 575.5 593.152 l 1
 654.812 593.152 l 1
 396.438 307.594 l 1
 704.875 0 l 1
 453.062 0 l 1
 233.312 220.219 l 1
 233.312 0.09375 l 1
 174.249 0.09375 l 1
 174.249 279.281 l 1
 132.062 321.469 l 1
 132.062 0.09375 l 1
 73 0.09375 l 1
 73 593.152 l 1xd8
233.312 387.281 m 1
 233.312 303.844 l 1
 477.438 59.5312 l 1
 561.438 59.1562 l 1
 233.312 387.281 l 1
EndSplineSet
Validated: 524289
EndChar

StartChar: l
Encoding: 108 108 59
Width: 536
VWidth: 0
Flags: W
HStem: 0 60<133 474.25> 126.562 60<268 474.25> 533 60<133 208>
VStem: 73 60<60 533> 208 60<186.562 533>
LayerCount: 2
Fore
SplineSet
73 0 m 1
 73 593 l 5
 268 593 l 5
 268 186.562 l 1
 474.25 186.562 l 1
 474.25 126.562 l 1
 208 126.562 l 1
 208 533 l 5
 133 533 l 5
 133 60 l 1
 474.25 60 l 1
 474.25 0 l 1
 73 0 l 1
EndSplineSet
Validated: 524289
EndChar

StartChar: m
Encoding: 109 109 60
Width: 901
VWidth: 0
Flags: W
HStem: 0 53<681.5 764.938> 636 20G<73.0198 85.1083 669.897 681.841 812.202 824.98>
VStem: 73.0625 59.9995<0 456.5> 216.5 60<0 208.062> 621.5 60<53 207.688 431.75 456.312> 764.938 60<53 456.125>
LayerCount: 2
Fore
SplineSet
73.0625 593 m 1
 73 656 l 1
 377.562 152.938 l 1
 682 656 l 1
 681.5 593 l 1
 681.5 431.75 l 1
 825 656 l 1
 824.938 593 l 1
 824.938 0 l 1
 621.5 0 l 1
 621.5 207.688 l 1
 520.812 33.3125 l 1
 449.188 157.438 l 1
 377.375 33.3125 l 1
 276.5 208.062 l 1
 276.5 0 l 1
 216.5 0 l 1
 216.5 311.75 l 1
 133.062 456.5 l 1
 133.062 0 l 1
 73.0625 0 l 1
 73.0625 593 l 1
621.5 456.312 m 1
 483.688 217.438 l 1
 520.812 153.312 l 1
 621.5 327.688 l 1
 621.5 327.875 l 1
 621.5 456.312 l 1
764.938 456.125 m 1
 681.5 311.375 l 1
 681.5 53 l 1
 764.938 53 l 1
 764.938 456.125 l 1
EndSplineSet
Validated: 524289
EndChar

StartChar: n
Encoding: 110 110 61
Width: 742
VWidth: 0
Flags: W
HStem: 0 60<133 191.125> 0.0625 21G<645.886 664.562> 573.438 20G<486.438 546.438 604.562 664.562> 573.438 20G<486.438 546.438 604.562 664.562>
VStem: 73 60<60 481.5> 191.125 60<60 327.188> 486.438 60<118.5 126.562 211.312 593.438> 604.562 60<145.188 593.438>
LayerCount: 2
Fore
SplineSet
73 658.5 m 5x8f
 486.438 118.5 l 5
 486.438 593.438 l 5
 546.438 593.438 l 5
 546.438 211.312 l 5
 604.562 145.188 l 5
 604.562 593.438 l 5
 664.562 593.438 l 5
 664.562 0.0625 l 5x6f
 546.438 126.562 l 5
 546.438 -58.5 l 5
 251.125 327.188 l 5
 251.125 0 l 5
 73 0 l 5
 73 658.5 l 5x8f
133 481.5 m 5
 133 60 l 5
 191.125 60 l 5x8f
 191.125 405.562 l 5
 133 481.5 l 5
EndSplineSet
Validated: 524289
EndChar

StartChar: o
Encoding: 111 111 62
Width: 718
VWidth: 0
Flags: W
HStem: 0 60<259.097 452.504> 413.438 60<288.406 393.482> 540 60<257.497 435.18>
VStem: 55 60<219.873 397.501> 181.562 60<261.611 366.589> 595 60<202.497 395.906>
LayerCount: 2
Fore
SplineSet
355 600 m 4
 408.771 600 459.461 585.639 503.125 560.812 c 6
 537.438 541.312 l 5
 444.438 448.5 l 5
 464.178 436.611 481.258 420.873 494.875 402.375 c 5
 586.75 494.062 l 5
 607 462.75 l 6
 637.387 415.863 655 359.965 655 300 c 4
 655 134.666 520.334 0 355 0 c 4
 295.035 0 239.143 17.8066 192.25 48.1875 c 6
 160.938 68.4375 l 5
 252.812 160.312 l 5
 234.332 173.865 218.582 190.91 206.688 210.562 c 5
 113.688 117.75 l 5
 94.1875 152.062 l 6
 69.3613 195.738 55 246.234 55 300 c 4
 55 465.328 189.666 600 355 600 c 4
355 540 m 4
 222.092 540 115 432.902 115 300 c 4
 115 271.266 120.578 244.078 129.812 218.625 c 5
 183.812 272.812 l 6
 182.406 281.672 181.562 290.754 181.562 300 c 4
 181.562 395.426 259.562 473.438 355 473.438 c 4
 363.168 473.408 372.848 472.383 382.375 471.188 c 5
 436.375 525.375 l 5
 410.951 534.586 383.699 540 355 540 c 4
355 413.438 m 4
 291.988 413.438 241.562 363 241.562 300 c 4
 241.562 258.873 263.342 223.143 295.75 203.25 c 5
 451.75 359.062 l 5
 431.875 391.559 396.186 413.438 355 413.438 c 4
574.375 396.75 m 5
 258.25 80.8125 l 5
 287.893 67.6582 320.377 60 355 60 c 4
 487.914 60 595 167.092 595 300 c 4
 595 334.529 587.459 367.178 574.375 396.75 c 5
EndSplineSet
Validated: 524289
EndChar

StartChar: p
Encoding: 112 112 63
Width: 592
VWidth: 0
Flags: W
HStem: 0 21G<72 132 198.562 258.562> 0 21G<72 132 198.562 258.562> 540.25 60<132.744 197.757>
VStem: 72 60<0 537.8> 198.562 60<0 191.5 265.375 533.12> 350.438 60<321.696 492.967> 468.562 60<321.051 492.45>
LayerCount: 2
Fore
SplineSet
189.375 600.25 m 0xbe
 207.07 600.508 226.008 599.688 245.25 597.062 c 0
 250.617 596.33 255.943 595.48 261.375 594.438 c 0
 289.061 598.141 327.773 600.824 367.875 595.188 c 0
 405.422 589.908 445.289 577.188 476.812 548.125 c 0
 508.336 519.062 528.562 473.758 528.562 414.625 c 0
 528.562 298.756 462.633 235.867 400.125 210.625 c 0
 338.578 185.77 279.885 190.598 278.062 190.75 c 0
 276.938 190.75 l 1
 258.562 191.5 l 1
 258.562 0 l 1
 198.562 0 l 1
 198.562 540.25 l 1
 170.959 540.508 147.761 537.379 132 534.625 c 1
 132 0 l 1
 72 0 l 1
 72 583.562 l 1
 95.0625 589.188 l 1
 95.0625 589.188 136.295 599.482 189.375 600.25 c 0xbe
373.125 533.312 m 1
 396.246 504.719 410.438 465.355 410.438 416.5 c 0
 410.438 345.93 388.254 294.08 356.438 259.375 c 1
 363.451 261.326 370.518 263.629 377.625 266.5 c 0
 424.805 285.555 468.562 319.557 468.562 414.625 c 0
 468.562 460.961 455.227 486.455 436.125 504.062 c 0
 419.988 518.939 397.688 528.238 373.125 533.312 c 1
260.812 533.125 m 0
 260.139 533.008 259.219 532.867 258.562 532.75 c 2
 258.562 265.375 l 1
 273.434 270.9 287.953 278.6 300.75 289.188 c 0
 328.377 312.045 350.438 347.57 350.438 416.5 c 0
 350.438 462.637 336.703 487.838 316.875 505.562 c 0
 302.18 518.705 282.65 527.635 260.812 533.125 c 0
EndSplineSet
Validated: 524321
EndChar

StartChar: q
Encoding: 113 113 64
Width: 791
VWidth: 0
Flags: W
HStem: -10 60<257.497 441.044> 99.6885 60.1865<285.363 349.562> 430.312 60<284.461 421.513> 540 60<260.173 449.827>
VStem: 55 60<192.497 388.907> 164.688 60.186<220.363 284.562> 485.312 60<210.073 364.416> 595 60<190.852 388.907>
LayerCount: 2
Fore
SplineSet
355 600 m 0
 520.334 600 655 455.328 655 290 c 0
 655 237.307 640.691 187.988 616.75 144.875 c 1
 743.125 20 l 1
 657.625 20 l 1
 540.438 135.688 l 1
 554.312 156.312 l 2
 580.012 194.539 595 240.354 595 290 c 0
 595 422.902 487.908 540 355 540 c 0
 222.092 540 115 422.902 115 290 c 0
 115 157.092 222.092 50 355 50 c 0
 386.008 50 415.258 56.2168 442.375 66.875 c 1
 403.188 106.062 l 1
 387.754 101.979 371.652 99.6885 355 99.6885 c 0
 250.246 99.6885 164.688 185.246 164.688 290 c 0
 164.688 394.748 250.24 490.312 355 490.312 c 0
 459.754 490.312 545.312 394.748 545.312 290 c 0
 545.312 250.865 533.424 214.35 513.062 184.062 c 1
 463.188 217.438 l 1
 477.145 238.197 485.312 262.982 485.312 290 c 0
 485.312 362.328 427.328 430.312 355 430.312 c 0
 305.266 430.312 262.234 402.879 240.251 362.25 c 1
 241.188 363.188 l 1
 541.938 52.25 l 1
 508.938 32.5625 l 2
 463.949 5.62695 411.156 -10 355 -10 c 0
 189.666 -10 55 124.666 55 290 c 0
 55 455.328 189.666 600 355 600 c 0
224.874 284.562 m 1
 227.617 216.582 281.582 162.623 349.562 159.875 c 1
 224.874 284.562 l 1
EndSplineSet
Validated: 524289
EndChar

StartChar: r
Encoding: 114 114 65
Width: 757
VWidth: 0
Flags: W
HStem: -1 59.0625<502.75 571.188> 542.312 55.876<132.062 190.938>
VStem: 73 59.062<0.625 542.178> 190.938 59.25<0.625 226.188 232.562 537.812> 402.062 58.876<306.155 474.263> 528.438 59.25<294.558 474.37>
LayerCount: 2
Fore
SplineSet
296.875 602.5 m 0
 324.93 602.975 360.297 601.328 398.688 594.438 c 0
 442.949 586.492 489.121 571.48 525.812 540.438 c 0
 562.504 509.394 587.688 461.102 587.688 398.875 c 0
 587.688 312.502 559.305 257.389 528.812 225.625 c 0
 521.23 217.732 513.59 211.059 506.125 205.75 c 1
 713.688 -1 l 1
 478.375 -1 l 1
 250.188 226.188 l 1
 250.188 0.625 l 1
 190.938 0.625 l 1
 190.938 542.312 l 1
 165.883 543.127 146.4 542.078 132.062 540.625 c 1
 132.062 0.625 l 1
 73 0.625 l 1
 73 592.938 l 1
 97.9375 596.875 l 1
 97.9375 596.875 163.68 606.004 238.938 598.188 c 0
 248.172 599.43 268.82 602.025 296.875 602.5 c 0
250.188 537.812 m 2
 250.188 232.562 l 1
 299.125 242.312 l 1
 299.125 242.312 323.201 247.094 349.188 268.75 c 0
 375.174 290.406 402.062 326.494 402.062 398.875 c 0
 402.062 446.336 386.008 473.898 361 495.062 c 0
 335.992 516.227 299.816 529.492 261.812 536.312 c 0
 257.893 537.016 254.032 537.455 250.188 537.812 c 2
408.25 530.688 m 1
 439.598 499.655 460.938 455.447 460.938 398.875 c 0
 460.938 310.943 424.545 254.266 387.25 223.188 c 0
 376.961 214.615 366.766 208.305 357.062 202.938 c 1
 502.75 58.0625 l 1
 571.188 58.0625 l 1
 398.875 229.375 l 1
 449.5 241.938 l 1
 449.5 241.938 465.93 245.336 486.062 266.312 c 0
 506.195 287.283 528.438 324.936 528.438 398.875 c 0
 528.438 446.336 512.57 473.898 487.562 495.062 c 0
 467.137 512.348 438.502 523.158 408.25 530.688 c 1
EndSplineSet
Validated: 524321
EndChar

StartChar: s
Encoding: 115 115 66
Width: 564
VWidth: 0
Flags: W
HStem: -9 60<235.41 389.865> 142.875 60<49.375 129.069> 178.406 60<189.758 364.417> 305.062 60<213.235 382.474> 427.125 60<399.23 488.688> 540 60<208.309 319.589>
VStem: 102.812 60<265.561 344.153> 121.188 60<103.477 143.25 400.554 512.75> 443.125 60<168.531 243.272>
LayerCount: 2
Fore
SplineSet
263.875 600 m 0xdd80
 332.195 600 391.293 551.818 405.438 487.125 c 1
 488.688 487.125 l 1
 488.688 427.125 l 1
 348.812 427.125 l 1
 348.812 457.125 l 2
 348.812 502.482 309.918 540 263.875 540 c 0
 217.85 540 181.188 503.156 181.188 457.125 c 0xdd80
 181.188 411.076 217.85 365.062 263.875 365.062 c 2
 312.812 365.062 l 2
 417.625 364.676 503.125 278.344 503.125 173.438 c 0
 503.125 68.3086 415.486 -9 312.25 -9 c 2
 312.062 -9 l 2
 219.098 -9 139.469 54 124.374 143.25 c 1
 49.375 142.875 l 1
 49 202.875 l 1
 165.812 203.625 l 1
 127.949 229.371 102.812 272.613 102.812 321.562 c 0xde80
 102.812 351.75 112.357 380.139 128.501 403.312 c 1
 123.783 417.422 121.188 441.475 121.188 457.125 c 0
 121.188 535.582 185.418 600 263.875 600 c 0xdd80
166.188 344.812 m 1
 164.26 338.039 163.188 329.736 162.812 321.562 c 0
 162.812 275.514 199.469 238.406 245.501 238.406 c 2
 294.625 238.406 l 2xbe80
 354.484 238.184 408.004 209.842 442.938 166.312 c 1
 443.055 168.662 443.125 171.035 443.125 173.438 c 0
 443.125 246.158 384.959 305.062 312.25 305.062 c 2
 263.125 305.062 l 2
 225.66 305.25 191.629 320.842 166.188 344.812 c 1
181.188 194.438 m 1xbd80
 181.188 173.438 l 2
 181.188 100.74 237.637 51 312.25 51 c 0
 355.246 51 392.154 67.4766 415.75 95.4385 c 1
 396.543 143.748 349.398 178.406 293.875 178.406 c 2
 245.501 178.406 l 2
 222.385 178.406 200.559 184.564 181.188 194.438 c 1xbd80
EndSplineSet
Validated: 524289
EndChar

StartChar: t
Encoding: 116 116 67
Width: 692
VWidth: 0
Flags: W
HStem: 0 21G<239.938 299.938 383.375 443.375> 0 21G<239.938 299.938 383.375 443.375> 413.875 60.563<59 239.938 299.938 383.375 443.375 569> 532 60<59 239.938 299.938 383.375 443.375 569>
VStem: 239.938 60<0 413.875 474.438 532> 383.375 60<0 412.938 474.438 532> 569 60<472.938 532>
LayerCount: 2
Fore
SplineSet
59 592 m 1xbe
 629 592 l 1
 629 412.938 l 1
 443.375 412.938 l 1
 443.375 0 l 1
 383.375 0 l 1
 383.375 412.938 l 1
 383.375 413.875 l 1
 299.938 413.875 l 1
 299.938 0 l 1
 239.938 0 l 1
 239.938 413.875 l 1
 59 413.875 l 1
 59 473.875 l 1
 239.938 474.438 l 1
 239.938 532 l 1
 59 532 l 1
 59 592 l 1xbe
299.938 532 m 1
 299.938 474.438 l 1
 383.375 474.438 l 1
 383.375 532 l 1
 299.938 532 l 1
443.375 532 m 1
 443.375 472.938 l 1
 569 472.938 l 1
 569 532 l 1
 443.375 532 l 1
EndSplineSet
Validated: 524289
EndChar

StartChar: u
Encoding: 117 117 68
Width: 738
VWidth: 0
Flags: W
HStem: -10 60<266.22 451.173> 533 60<126 175.688>
VStem: 66 60<190.885 533> 175.688 60<274.258 533> 479.438 60<275.473 591> 606 60<192.507 591>
LayerCount: 2
Fore
SplineSet
66 593 m 1
 235.688 593 l 1
 235.688 375.938 l 2
 235.688 286.154 284.883 198.26 357.562 157.062 c 1
 430.242 198.26 479.438 286.137 479.438 375.938 c 2
 479.438 591 l 1
 539.438 591 l 1
 539.438 375.938 l 2
 539.438 280.998 495.094 186.189 426 131.188 c 1
 442.031 127.807 458.602 125.938 475.688 125.938 c 0
 502.354 125.938 527.918 130.314 551.812 138.312 c 1
 585.68 179.686 606 232.25 606 290 c 2
 606 591 l 1
 666 591 l 1
 666 290 l 2
 666 214.742 638.027 145.783 592.125 93.125 c 0
 537.17 30.0723 456.1 -10 366 -10 c 0
 279.955 -10 202.049 26.4805 147.375 84.6875 c 0
 96.9844 138.312 66 210.711 66 290 c 2
 66 593 l 1
126 533 m 1
 126 290 l 2
 126 226.291 150.674 168.916 191.062 125.938 c 0
 234.879 79.291 296.854 50 366 50 c 0
 396.762 50 425.496 56.7559 452.438 67.25 c 1
 414.035 70.2207 377.467 80.0117 344.438 96.125 c 0
 244.5 144.828 175.688 257.59 175.688 375.938 c 2
 175.688 533 l 1
 126 533 l 1
EndSplineSet
Validated: 524289
EndChar

StartChar: v
Encoding: 118 118 69
Width: 791
VWidth: 0
Flags: W
HStem: 524.688 67.5<157.188 245.5>
LayerCount: 2
Fore
SplineSet
49 592.188 m 1
 275.688 592.188 l 1
 393.625 379.812 l 1
 511.75 592.188 l 1
 580.938 592.188 l 1
 393.625 259.812 l 1
 245.5 524.688 l 1
 157.188 524.688 l 1
 393.625 107 l 1
 669.25 592.188 l 1
 738.438 592.188 l 1
 393.625 -13 l 1
 49 592.188 l 1
EndSplineSet
Validated: 524289
EndChar

StartChar: w
Encoding: 119 119 70
Width: 1104
VWidth: 0
Flags: W
HStem: 524.688 67.5<157.188 245.501>
LayerCount: 2
Fore
SplineSet
49 592.188 m 1
 275.688 592.188 l 1
 434.688 316.188 l 1
 393.812 261.812 l 1
 245.501 524.688 l 1
 157.188 524.688 l 1
 393.812 109 l 1
 669.25 592.188 l 1
 738.438 592.188 l 1
 393.812 -11 l 1
 49 592.188 l 1
823.938 592.188 m 1
 893.125 592.188 l 1
 706 261.812 l 1
 652.562 354.25 l 1
 692.125 405.812 l 1
 706 381.812 l 1
 823.938 592.188 l 1
981.438 592.188 m 1
 1050.62 592.188 l 1
 706 -11 l 1
 586.562 198.062 l 1
 620.312 257.125 l 1
 706 109 l 1
 981.438 592.188 l 1
EndSplineSet
Validated: 524289
EndChar

StartChar: x
Encoding: 120 120 71
Width: 765
VWidth: 0
Flags: W
HStem: 0 60<499.688 599.25> 532.062 60<161.625 261>
LayerCount: 2
Fore
SplineSet
57.5625 592.062 m 1
 295.688 592.062 l 1
 380.438 449.25 l 1
 474.875 591.25 l 1
 544.25 591.25 l 1
 295.875 183.188 l 1
 264.75 237.375 l 1
 117.625 0.25 l 1
 49 0.25 l 1
 229.875 297.75 l 1
 57.5625 592.062 l 1
640.625 591.25 m 1
 709.625 591.25 l 1
 531 298.125 l 1
 703.125 0 l 1
 465 0 l 1
 380.438 146.812 l 1
 282.25 0.25 l 1
 213.062 0.25 l 1
 464.812 412.875 l 1
 496.125 358.5 l 1
 640.625 591.25 l 1
161.625 532.062 m 1
 296.062 303.188 l 1
 345.75 389.25 l 1
 261 532.062 l 1
 161.625 532.062 l 1
464.812 292.875 m 1
 414.938 206.812 l 1
 499.688 60 l 1
 599.25 60 l 1
 496.688 237.75 l 1
 464.812 292.875 l 1
EndSplineSet
Validated: 524289
EndChar

StartChar: y
Encoding: 121 121 72
Width: 801
VWidth: 0
Flags: W
HStem: 0 21G<314.5 376.562 424.188 484.188> 0 21G<314.5 376.562 424.188 484.188> 571 20G<49 153.922 197.688 302.625 498.125 603.062 644.75 749.688> 571 20G<49 153.922 197.688 302.625 498.125 603.062 644.75 749.688>
VStem: 314.5 62.062<0 218.062 300.75 325.688> 424.188 60<0 265.688>
LayerCount: 2
Fore
SplineSet
49 591 m 1xac
 133.938 591 l 1
 374.5 350.25 l 1
 374.5 300.75 l 1
 664.75 591 l 1
 749.688 591 l 1
 484.188 325.688 l 1
 484.188 0 l 1
 424.188 0 l 1
 424.188 265.688 l 1
 376.562 218.062 l 1
 376.562 0 l 1
 314.5 0 l 1
 314.5 325.688 l 1
 49 591 l 1xac
197.688 591 m 1
 282.625 591 l 1
 400.375 473.25 l 1
 518.125 591 l 1
 603.062 591 l 1
 400.375 388.125 l 1
 197.688 591 l 1
EndSplineSet
Validated: 524289
EndChar

StartChar: z
Encoding: 122 122 73
Width: 693
VWidth: 0
Flags: W
HStem: 0 60.75<318.031 625.219> 112.688 60<383.656 625.219> 428.312 60<59 314.656> 529.75 61.781<59 373.906>
LayerCount: 2
Fore
SplineSet
564.219 591.531 m 1
 633.406 591.531 l 1
 383.656 172.688 l 1
 625.219 172.688 l 1
 625.219 112.688 l 1
 348.594 112.688 l 1
 318.031 60.75 l 1
 625.219 60.75 l 1
 625.219 0 l 1
 213.219 0 l 1
 564.219 591.531 l 1
59 591.531 m 5
 478.344 591.531 l 1
 130.344 0 l 1
 66.5938 0 l 1
 314.656 428.312 l 1
 59 428.312 l 5
 59 488.312 l 5
 349.719 488.312 l 1
 373.906 529.75 l 1
 59 529.75 l 5
 59 591.531 l 5
EndSplineSet
Validated: 524289
EndChar

StartChar: Egrave
Encoding: 200 200 74
Width: 636
VWidth: 0
Flags: W
HStem: 0 60<133 199.562 259.562 567.062> 170.188 60<133 199.562 259.562 326.125> 288.312 60<133 199.562 259.562 326.125> 414.875 60<133 199.562 259.562 567.062> 533 60<133 199.562 259.562 567.062>
VStem: 73 60<60 170.188 230.188 288.312 348.312 414.875 474.875 533> 199.562 60<60 170.188 230.188 288.312 348.312 414.875 474.875 533> 326.125 60<230.188 288.312>
LayerCount: 2
Fore
SplineSet
129.073 737.035 m 1
 383.32 821.783 l 1
 402.927 762.965 l 1
 148.68 678.217 l 1
 129.073 737.035 l 1
73 593 m 1
 567.062 593 l 1
 567.062 533 l 1
 259.562 533 l 1
 259.562 474.875 l 1
 567.062 474.875 l 1
 567.062 414.875 l 1
 259.562 414.875 l 1
 259.562 348.312 l 1
 386.125 348.312 l 1
 386.125 170.188 l 1
 259.562 170.188 l 1
 259.562 60 l 1
 567.062 60 l 1
 567.062 0 l 1
 73 0 l 1
 73 593 l 1
133 533 m 1
 133 474.875 l 1
 199.562 474.875 l 1
 199.562 533 l 1
 133 533 l 1
133 414.875 m 1
 133 348.312 l 1
 199.562 348.312 l 1
 199.562 414.875 l 1
 133 414.875 l 1
133 288.312 m 1
 133 230.188 l 1
 199.562 230.188 l 1
 199.562 288.312 l 1
 133 288.312 l 1
259.562 288.312 m 1
 259.562 230.188 l 1
 326.125 230.188 l 1
 326.125 288.312 l 1
 259.562 288.312 l 1
133 170.188 m 1
 133 60 l 1
 199.562 60 l 1
 199.562 170.188 l 1
 133 170.188 l 1
EndSplineSet
Validated: 524289
EndChar

StartChar: Eacute
Encoding: 201 201 75
Width: 636
VWidth: 0
Flags: W
HStem: 0 60<133 199.562 259.562 567.062> 170.188 60<133 199.562 259.562 326.125> 288.312 60<133 199.562 259.562 326.125> 414.875 60<133 199.562 259.562 567.062> 533 60<133 199.562 259.562 567.062>
VStem: 73 60<60 170.188 230.188 288.312 348.312 414.875 474.875 533> 199.562 60<60 170.188 230.188 288.312 348.312 414.875 474.875 533> 326.125 60<230.188 288.312>
LayerCount: 2
Fore
SplineSet
150.505 818.737 m 5
 407.09 741.354 l 5
 389.188 681.994 l 5
 132.604 759.378 l 5
 150.505 818.737 l 5
73 593 m 1
 567.062 593 l 1
 567.062 533 l 1
 259.562 533 l 1
 259.562 474.875 l 1
 567.062 474.875 l 1
 567.062 414.875 l 1
 259.562 414.875 l 1
 259.562 348.312 l 1
 386.125 348.312 l 1
 386.125 170.188 l 1
 259.562 170.188 l 1
 259.562 60 l 1
 567.062 60 l 1
 567.062 0 l 1
 73 0 l 1
 73 593 l 1
133 533 m 1
 133 474.875 l 1
 199.562 474.875 l 1
 199.562 533 l 1
 133 533 l 1
133 414.875 m 1
 133 348.312 l 1
 199.562 348.312 l 1
 199.562 414.875 l 1
 133 414.875 l 1
133 288.312 m 1
 133 230.188 l 1
 199.562 230.188 l 1
 199.562 288.312 l 1
 133 288.312 l 1
259.562 288.312 m 1
 259.562 230.188 l 1
 326.125 230.188 l 1
 326.125 288.312 l 1
 259.562 288.312 l 1
133 170.188 m 1
 133 60 l 1
 199.562 60 l 1
 199.562 170.188 l 1
 133 170.188 l 1
EndSplineSet
Validated: 524289
EndChar

StartChar: Ecircumflex
Encoding: 202 202 76
Width: 636
VWidth: 0
Flags: W
HStem: 0 60<133 199.562 259.562 567.062> 170.188 60<133 199.562 259.562 326.125> 288.312 60<133 199.562 259.562 326.125> 414.875 60<133 199.562 259.562 567.062> 533 60<133 199.562 259.562 567.062> 726.266 62<168.232 436.23>
VStem: 73 60<60 170.188 230.188 288.312 348.312 414.875 474.875 533> 199.562 60<60 170.188 230.188 288.312 348.312 414.875 474.875 533> 326.125 60<230.188 288.312>
LayerCount: 2
Fore
SplineSet
168.231 788.266 m 1
 436.23 788.265 l 1
 436.231 726.265 l 1
 168.232 726.266 l 1
 168.231 788.266 l 1
73 593 m 1
 567.062 593 l 1
 567.062 533 l 1
 259.562 533 l 1
 259.562 474.875 l 1
 567.062 474.875 l 1
 567.062 414.875 l 1
 259.562 414.875 l 1
 259.562 348.312 l 1
 386.125 348.312 l 1
 386.125 170.188 l 1
 259.562 170.188 l 1
 259.562 60 l 1
 567.062 60 l 1
 567.062 0 l 1
 73 0 l 1
 73 593 l 1
133 533 m 1
 133 474.875 l 1
 199.562 474.875 l 1
 199.562 533 l 1
 133 533 l 1
133 414.875 m 1
 133 348.312 l 1
 199.562 348.312 l 1
 199.562 414.875 l 1
 133 414.875 l 1
133 288.312 m 1
 133 230.188 l 1
 199.562 230.188 l 1
 199.562 288.312 l 1
 133 288.312 l 1
259.562 288.312 m 1
 259.562 230.188 l 1
 326.125 230.188 l 1
 326.125 288.312 l 1
 259.562 288.312 l 1
133 170.188 m 1
 133 60 l 1
 199.562 60 l 1
 199.562 170.188 l 1
 133 170.188 l 1
EndSplineSet
Validated: 524289
EndChar

StartChar: Edieresis
Encoding: 203 203 77
Width: 636
VWidth: 0
Flags: W
HStem: 0 60<133 199.562 259.562 567.062> 170.188 60<133 199.562 259.562 326.125> 288.312 60<133 199.562 259.562 326.125> 414.875 60<133 199.562 259.562 567.062> 533 60<133 199.562 259.562 567.062> 726.266 62<200.232 260.23 326.232 386.23>
VStem: 73 60<60 170.188 230.188 288.312 348.312 414.875 474.875 533> 199.562 60<60 170.188 230.188 288.312 348.312 414.875 474.875 533 726.266 788.265> 326.125 60<230.188 288.312 726.266 788.265>
LayerCount: 2
Fore
SplineSet
326.231 788.266 m 5
 386.23 788.265 l 5
 386.231 726.265 l 5
 326.232 726.266 l 5
 326.231 788.266 l 5
200.231 788.266 m 5
 260.23 788.265 l 5
 260.231 726.265 l 5
 200.232 726.266 l 5
 200.231 788.266 l 5
73 593 m 1
 567.062 593 l 1
 567.062 533 l 1
 259.562 533 l 1
 259.562 474.875 l 1
 567.062 474.875 l 1
 567.062 414.875 l 1
 259.562 414.875 l 1
 259.562 348.312 l 1
 386.125 348.312 l 1
 386.125 170.188 l 1
 259.562 170.188 l 1
 259.562 60 l 1
 567.062 60 l 1
 567.062 0 l 1
 73 0 l 1
 73 593 l 1
133 533 m 1
 133 474.875 l 1
 199.562 474.875 l 1
 199.562 533 l 1
 133 533 l 1
133 414.875 m 1
 133 348.312 l 1
 199.562 348.312 l 1
 199.562 414.875 l 1
 133 414.875 l 1
133 288.312 m 1
 133 230.188 l 1
 199.562 230.188 l 1
 199.562 288.312 l 1
 133 288.312 l 1
259.562 288.312 m 1
 259.562 230.188 l 1
 326.125 230.188 l 1
 326.125 288.312 l 1
 259.562 288.312 l 1
133 170.188 m 1
 133 60 l 1
 199.562 60 l 1
 199.562 170.188 l 1
 133 170.188 l 1
EndSplineSet
Validated: 524289
EndChar

StartChar: Igrave
Encoding: 204 204 78
Width: 327
VWidth: 0
Flags: W
HStem: 0 21G<73 132.063 191.125 250.188> 0 21G<73 132.063 191.125 250.188> 510.562 59.0625<132.063 191.125>
VStem: 73 59.0625<0 510.562> 191.125 59.0625<0 510.562>
LayerCount: 2
Fore
SplineSet
43.5049 818.737 m 1x38
 300.09 741.354 l 1
 282.188 681.994 l 1
 25.6035 759.378 l 1
 43.5049 818.737 l 1x38
73 591.625 m 1
 250.188 591.625 l 1
 250.188 0 l 1
 191.125 0 l 1
 191.125 532.562 l 1
 132.062 532.562 l 1
 132.062 0 l 1
 73 0 l 1xb8
 73 591.625 l 1
EndSplineSet
Validated: 524289
EndChar

StartChar: Iacute
Encoding: 205 205 79
Width: 327
VWidth: 0
Flags: W
HStem: 0 21G<73 132.063 191.125 250.188> 0 21G<73 132.063 191.125 250.188> 510.562 59.0625<132.063 191.125>
VStem: 73 59.0625<0 510.562> 191.125 59.0625<0 510.562>
LayerCount: 2
Fore
SplineSet
27.0732 737.035 m 1x38
 281.32 821.783 l 1
 300.927 762.965 l 1
 46.6797 678.217 l 1
 27.0732 737.035 l 1x38
73 591.625 m 1
 250.188 591.625 l 1
 250.188 0 l 1
 191.125 0 l 1
 191.125 532.562 l 1
 132.062 532.562 l 1
 132.062 0 l 1
 73 0 l 1xb8
 73 591.625 l 1
EndSplineSet
Validated: 524289
EndChar

StartChar: Icircumflex
Encoding: 206 206 80
Width: 327
VWidth: 0
Flags: W
HStem: 0 21G<73 132.062 191.125 250.188> 0 21G<73 132.062 191.125 250.188> 532.562 59.063<132.062 191.125> 726.266 62<29.2324 297.23>
VStem: 73 59.062<0 532.562> 191.125 59.063<0 532.562>
LayerCount: 2
Fore
SplineSet
29.2314 788.266 m 1x3c
 297.23 788.265 l 1
 297.231 726.265 l 1
 29.2324 726.266 l 1
 29.2314 788.266 l 1x3c
73 591.625 m 1
 250.188 591.625 l 1
 250.188 0 l 1
 191.125 0 l 1
 191.125 532.562 l 1
 132.062 532.562 l 1
 132.062 0 l 1
 73 0 l 1xbc
 73 591.625 l 1
EndSplineSet
Validated: 524289
EndChar

StartChar: Idieresis
Encoding: 207 207 81
Width: 327
VWidth: 0
Flags: W
HStem: 0 21G<73 132.062 191.125 250.188> 0 21G<73 132.062 191.125 250.188> 532.562 59.063<132.062 191.125> 726.266 62<71.2324 131.23 191.232 251.23>
VStem: 73 59.062<0 532.562 726.266 788.265> 191.125 59.063<0 532.562 726.266 788.265>
LayerCount: 2
Fore
SplineSet
191.231 788.266 m 1x3c
 251.23 788.265 l 1
 251.231 726.265 l 1
 191.232 726.266 l 1
 191.231 788.266 l 1x3c
71.2314 788.266 m 1
 131.23 788.265 l 1
 131.231 726.265 l 1
 71.2324 726.266 l 1
 71.2314 788.266 l 1
73 591.625 m 1
 250.188 591.625 l 1
 250.188 0 l 1
 191.125 0 l 1
 191.125 532.562 l 1
 132.062 532.562 l 1
 132.062 0 l 1
 73 0 l 1xbc
 73 591.625 l 1
EndSplineSet
Validated: 524289
EndChar

StartChar: Eth
Encoding: 208 208 82
Width: 686
VWidth: 0
Flags: W
HStem: -0.1875 60<134.5 199.749 259.281 336.812> 102.375 60<259.281 436.562> 421.875 61.125<259.281 366.628> 532.688 60<133 418.458>
VStem: 74.5 60<60 532.688> 199.749 59.532<60 102.375 162.375 421.875> 461.125 60<163.432 338.08> 562.375 60<177.219 390.189>
LayerCount: 2
Fore
SplineSet
73 592.688 m 1
 322.375 592.688 l 2
 487.709 592.688 622.375 458.016 622.375 292.688 c 0
 622.375 215.725 599.729 136.289 554.688 76.3125 c 1
 428.875 76.3125 l 1
 431.447 84.416 433.967 93.0762 436.562 102.375 c 1
 259.281 102.375 l 1
 259.281 59.8125 l 1
 371.875 59.8125 l 1
 336.812 -0.1875 l 1
 74.5 0 l 1
 73 592.688 l 1
133 532.688 m 1
 134.5 60 l 1
 199.749 60 l 1
 198.626 483 l 1
 237.999 483 l 2
 316.709 483 386.594 467.238 438.625 427.5 c 0
 490.656 387.762 521.125 323.596 521.125 242.062 c 0
 521.125 207.592 512.893 161.584 502.375 117.188 c 0
 501.338 112.799 500.242 109.283 499.188 105 c 1
 539.295 153.908 562.375 223.33 562.375 292.688 c 0
 562.375 425.59 455.283 532.688 322.375 532.688 c 2
 133 532.688 l 1
259.281 421.875 m 1
 259.281 162.375 l 1
 450.812 162.375 l 1
 457.035 193.963 461.125 224.139 461.125 242.062 c 0
 461.125 309.65 439.686 351.24 402.438 379.688 c 0
 369.057 405.182 319.773 419.109 259.281 421.875 c 1
EndSplineSet
Validated: 524289
EndChar

StartChar: Ntilde
Encoding: 209 209 83
Width: 742
VWidth: 0
Flags: W
HStem: 0 60<133 191.125> 0.0625 21G<645.886 664.562> 573.438 20G<486.438 546.438 604.562 664.562> 573.438 20G<486.438 546.438 604.562 664.562>
VStem: 73 60<60 481.5> 191.125 60<60 327.188> 486.438 60<118.5 126.562 211.312 593.438> 604.562 60<145.188 593.438>
LayerCount: 2
Fore
SplineSet
73 658.5 m 5x8f
 486.438 118.5 l 5
 486.438 593.438 l 5
 546.438 593.438 l 5
 546.438 211.312 l 5
 604.562 145.188 l 5
 604.562 593.438 l 5
 664.562 593.438 l 5
 664.562 0.0625 l 5x6f
 546.438 126.562 l 5
 546.438 -58.5 l 5
 251.125 327.188 l 5
 251.125 0 l 5
 73 0 l 5
 73 658.5 l 5x8f
133 481.5 m 5
 133 60 l 5
 191.125 60 l 5x8f
 191.125 405.562 l 5
 133 481.5 l 5
EndSplineSet
Validated: 524289
EndChar

StartChar: Ograve
Encoding: 210 210 84
Width: 718
VWidth: 0
Flags: W
HStem: 0 60<259.097 452.504> 413.438 60<288.406 393.482> 540 60<257.497 435.18>
VStem: 55 60<219.872 397.501> 181.562 60<261.611 366.589> 595 60<202.497 395.906>
LayerCount: 2
Fore
SplineSet
218.073 737.035 m 1
 472.32 821.783 l 1
 491.927 762.965 l 1
 237.68 678.217 l 1
 218.073 737.035 l 1
355 600 m 0
 408.771 600 459.461 585.639 503.125 560.812 c 2
 537.438 541.312 l 1
 444.438 448.5 l 1
 464.178 436.611 481.258 420.873 494.875 402.375 c 1
 586.75 494.062 l 1
 607 462.75 l 2
 637.387 415.863 655 359.965 655 300 c 0
 655 134.666 520.334 0 355 0 c 0
 295.035 0 239.143 17.8066 192.25 48.1875 c 2
 160.938 68.4375 l 1
 252.812 160.312 l 1
 234.332 173.865 218.582 190.91 206.688 210.562 c 1
 113.688 117.75 l 1
 94.1875 152.062 l 2
 69.3613 195.738 55 246.234 55 300 c 0
 55 465.328 189.666 600 355 600 c 0
355 540 m 0
 222.092 540 115 432.902 115 300 c 0
 115 271.266 120.578 244.078 129.812 218.625 c 1
 183.812 272.812 l 2
 182.406 281.672 181.562 290.754 181.562 300 c 0
 181.562 395.426 259.562 473.438 355 473.438 c 0
 363.168 473.408 372.848 472.383 382.375 471.188 c 1
 436.375 525.375 l 1
 410.951 534.586 383.699 540 355 540 c 0
355 413.438 m 0
 291.988 413.438 241.562 363 241.562 300 c 0
 241.562 258.873 263.342 223.143 295.75 203.25 c 1
 451.75 359.062 l 1
 431.875 391.559 396.186 413.438 355 413.438 c 0
574.375 396.75 m 1
 258.25 80.8125 l 1
 287.893 67.6582 320.377 60 355 60 c 0
 487.914 60 595 167.092 595 300 c 0
 595 334.529 587.459 367.178 574.375 396.75 c 1
EndSplineSet
Validated: 524289
EndChar

StartChar: Oacute
Encoding: 211 211 85
Width: 718
VWidth: 0
Flags: W
HStem: 0 60<259.097 452.504> 413.438 60<288.406 393.482> 540 60<257.497 435.18>
VStem: 55 60<219.872 397.501> 181.562 60<261.611 366.589> 595 60<202.497 395.906>
LayerCount: 2
Fore
SplineSet
258.505 818.737 m 5
 515.09 741.354 l 5
 497.188 681.994 l 5
 240.604 759.378 l 5
 258.505 818.737 l 5
355 600 m 0
 408.771 600 459.461 585.639 503.125 560.812 c 2
 537.438 541.312 l 1
 444.438 448.5 l 1
 464.178 436.611 481.258 420.873 494.875 402.375 c 1
 586.75 494.062 l 1
 607 462.75 l 2
 637.387 415.863 655 359.965 655 300 c 0
 655 134.666 520.334 0 355 0 c 0
 295.035 0 239.143 17.8066 192.25 48.1875 c 2
 160.938 68.4375 l 1
 252.812 160.312 l 1
 234.332 173.865 218.582 190.91 206.688 210.562 c 1
 113.688 117.75 l 1
 94.1875 152.062 l 2
 69.3613 195.738 55 246.234 55 300 c 0
 55 465.328 189.666 600 355 600 c 0
355 540 m 0
 222.092 540 115 432.902 115 300 c 0
 115 271.266 120.578 244.078 129.812 218.625 c 1
 183.812 272.812 l 2
 182.406 281.672 181.562 290.754 181.562 300 c 0
 181.562 395.426 259.562 473.438 355 473.438 c 0
 363.168 473.408 372.848 472.383 382.375 471.188 c 1
 436.375 525.375 l 1
 410.951 534.586 383.699 540 355 540 c 0
355 413.438 m 0
 291.988 413.438 241.562 363 241.562 300 c 0
 241.562 258.873 263.342 223.143 295.75 203.25 c 1
 451.75 359.062 l 1
 431.875 391.559 396.186 413.438 355 413.438 c 0
574.375 396.75 m 1
 258.25 80.8125 l 1
 287.893 67.6582 320.377 60 355 60 c 0
 487.914 60 595 167.092 595 300 c 0
 595 334.529 587.459 367.178 574.375 396.75 c 1
EndSplineSet
Validated: 524289
EndChar

StartChar: Ocircumflex
Encoding: 212 212 86
Width: 718
VWidth: 0
Flags: W
HStem: 0 60<259.097 452.504> 413.438 60<288.406 393.482> 540 60<257.497 435.18> 726.266 62<218.232 486.23>
VStem: 55 60<219.872 397.501> 181.562 60<261.611 366.589> 595 60<202.497 395.906>
LayerCount: 2
Fore
SplineSet
218.231 788.266 m 5
 486.23 788.265 l 5
 486.231 726.265 l 5
 218.232 726.266 l 5
 218.231 788.266 l 5
355 600 m 0
 408.771 600 459.461 585.639 503.125 560.812 c 2
 537.438 541.312 l 1
 444.438 448.5 l 1
 464.178 436.611 481.258 420.873 494.875 402.375 c 1
 586.75 494.062 l 1
 607 462.75 l 2
 637.387 415.863 655 359.965 655 300 c 0
 655 134.666 520.334 0 355 0 c 0
 295.035 0 239.143 17.8066 192.25 48.1875 c 2
 160.938 68.4375 l 1
 252.812 160.312 l 1
 234.332 173.865 218.582 190.91 206.688 210.562 c 1
 113.688 117.75 l 1
 94.1875 152.062 l 2
 69.3613 195.738 55 246.234 55 300 c 0
 55 465.328 189.666 600 355 600 c 0
355 540 m 0
 222.092 540 115 432.902 115 300 c 0
 115 271.266 120.578 244.078 129.812 218.625 c 1
 183.812 272.812 l 2
 182.406 281.672 181.562 290.754 181.562 300 c 0
 181.562 395.426 259.562 473.438 355 473.438 c 0
 363.168 473.408 372.848 472.383 382.375 471.188 c 1
 436.375 525.375 l 1
 410.951 534.586 383.699 540 355 540 c 0
355 413.438 m 0
 291.988 413.438 241.562 363 241.562 300 c 0
 241.562 258.873 263.342 223.143 295.75 203.25 c 1
 451.75 359.062 l 1
 431.875 391.559 396.186 413.438 355 413.438 c 0
574.375 396.75 m 1
 258.25 80.8125 l 1
 287.893 67.6582 320.377 60 355 60 c 0
 487.914 60 595 167.092 595 300 c 0
 595 334.529 587.459 367.178 574.375 396.75 c 1
EndSplineSet
Validated: 524289
EndChar

StartChar: Otilde
Encoding: 213 213 87
Width: 718
VWidth: 0
Flags: W
HStem: 0 60<259.097 452.504> 413.438 60<288.406 393.482> 540 60<257.497 435.18>
VStem: 55 60<219.872 397.501> 181.562 60<261.611 366.589> 595 60<202.497 395.906>
LayerCount: 2
Fore
SplineSet
355 600 m 4
 408.771 600 459.461 585.639 503.125 560.812 c 6
 537.438 541.312 l 5
 444.438 448.5 l 5
 464.178 436.611 481.258 420.873 494.875 402.375 c 5
 586.75 494.062 l 5
 607 462.75 l 6
 637.387 415.863 655 359.965 655 300 c 4
 655 134.666 520.334 0 355 0 c 4
 295.035 0 239.143 17.8066 192.25 48.1875 c 6
 160.938 68.4375 l 5
 252.812 160.312 l 5
 234.332 173.865 218.582 190.91 206.688 210.562 c 5
 113.688 117.75 l 5
 94.1875 152.062 l 6
 69.3613 195.738 55 246.234 55 300 c 4
 55 465.328 189.666 600 355 600 c 4
355 540 m 4
 222.092 540 115 432.902 115 300 c 4
 115 271.266 120.578 244.078 129.812 218.625 c 5
 183.812 272.812 l 6
 182.406 281.672 181.562 290.754 181.562 300 c 4
 181.562 395.426 259.562 473.438 355 473.438 c 4
 363.168 473.408 372.848 472.383 382.375 471.188 c 5
 436.375 525.375 l 5
 410.951 534.586 383.699 540 355 540 c 4
355 413.438 m 4
 291.988 413.438 241.562 363 241.562 300 c 4
 241.562 258.873 263.342 223.143 295.75 203.25 c 5
 451.75 359.062 l 5
 431.875 391.559 396.186 413.438 355 413.438 c 4
574.375 396.75 m 5
 258.25 80.8125 l 5
 287.893 67.6582 320.377 60 355 60 c 4
 487.914 60 595 167.092 595 300 c 4
 595 334.529 587.459 367.178 574.375 396.75 c 5
EndSplineSet
Validated: 524289
EndChar

StartChar: Odieresis
Encoding: 214 214 88
Width: 718
VWidth: 0
Flags: W
HStem: 0 60<259.097 452.504> 413.438 60<288.406 393.482> 540 60<257.497 435.18> 726.266 62<262.232 322.23 388.232 448.23>
VStem: 55 60<219.872 397.501> 181.562 60<261.611 366.589> 262.232 59.999<726.266 788.265> 388.232 59.999<726.266 788.265> 595 60<202.497 395.906>
LayerCount: 2
Fore
SplineSet
388.231 788.266 m 1
 448.23 788.265 l 1
 448.231 726.265 l 1
 388.232 726.266 l 1
 388.231 788.266 l 1
262.231 788.266 m 1
 322.23 788.265 l 1
 322.231 726.265 l 1
 262.232 726.266 l 1
 262.231 788.266 l 1
355 600 m 0
 408.771 600 459.461 585.639 503.125 560.812 c 2
 537.438 541.312 l 1
 444.438 448.5 l 1
 464.178 436.611 481.258 420.873 494.875 402.375 c 1
 586.75 494.062 l 1
 607 462.75 l 2
 637.387 415.863 655 359.965 655 300 c 0
 655 134.666 520.334 0 355 0 c 0
 295.035 0 239.143 17.8066 192.25 48.1875 c 2
 160.938 68.4375 l 1
 252.812 160.312 l 1
 234.332 173.865 218.582 190.91 206.688 210.562 c 1
 113.688 117.75 l 1
 94.1875 152.062 l 2
 69.3613 195.738 55 246.234 55 300 c 0
 55 465.328 189.666 600 355 600 c 0
355 540 m 0
 222.092 540 115 432.902 115 300 c 0
 115 271.266 120.578 244.078 129.812 218.625 c 1
 183.812 272.812 l 2
 182.406 281.672 181.562 290.754 181.562 300 c 0
 181.562 395.426 259.562 473.438 355 473.438 c 0
 363.168 473.408 372.848 472.383 382.375 471.188 c 1
 436.375 525.375 l 1
 410.951 534.586 383.699 540 355 540 c 0
355 413.438 m 0
 291.988 413.438 241.562 363 241.562 300 c 0
 241.562 258.873 263.342 223.143 295.75 203.25 c 1
 451.75 359.062 l 1
 431.875 391.559 396.186 413.438 355 413.438 c 0
574.375 396.75 m 1
 258.25 80.8125 l 1
 287.893 67.6582 320.377 60 355 60 c 0
 487.914 60 595 167.092 595 300 c 0
 595 334.529 587.459 367.178 574.375 396.75 c 1
EndSplineSet
Validated: 524289
EndChar

StartChar: Ugrave
Encoding: 217 217 89
Width: 738
VWidth: 0
Flags: W
HStem: -10 60<266.22 451.173> 533 60<126 175.688>
VStem: 66 60<190.885 533> 175.688 60<274.258 533> 479.438 60<275.473 591> 606 60<192.507 591>
LayerCount: 2
Fore
SplineSet
220.073 737.035 m 5
 474.32 821.783 l 5
 493.927 762.965 l 5
 239.68 678.217 l 5
 220.073 737.035 l 5
66 593 m 1
 235.688 593 l 1
 235.688 375.938 l 2
 235.688 286.154 284.883 198.26 357.562 157.062 c 1
 430.242 198.26 479.438 286.137 479.438 375.938 c 2
 479.438 591 l 1
 539.438 591 l 1
 539.438 375.938 l 2
 539.438 280.998 495.094 186.189 426 131.188 c 1
 442.031 127.807 458.602 125.938 475.688 125.938 c 0
 502.354 125.938 527.918 130.314 551.812 138.312 c 1
 585.68 179.686 606 232.25 606 290 c 2
 606 591 l 1
 666 591 l 1
 666 290 l 2
 666 214.742 638.027 145.783 592.125 93.125 c 0
 537.17 30.0723 456.1 -10 366 -10 c 0
 279.955 -10 202.049 26.4805 147.375 84.6875 c 0
 96.9844 138.312 66 210.711 66 290 c 2
 66 593 l 1
126 533 m 1
 126 290 l 2
 126 226.291 150.674 168.916 191.062 125.938 c 0
 234.879 79.291 296.854 50 366 50 c 0
 396.762 50 425.496 56.7559 452.438 67.25 c 1
 414.035 70.2207 377.467 80.0117 344.438 96.125 c 0
 244.5 144.828 175.688 257.59 175.688 375.938 c 2
 175.688 533 l 1
 126 533 l 1
EndSplineSet
Validated: 524289
EndChar

StartChar: Uacute
Encoding: 218 218 90
Width: 738
VWidth: 0
Flags: W
HStem: -10 60<266.22 451.173> 533 60<126 175.688>
VStem: 66 60<190.885 533> 175.688 60<274.258 533> 479.438 60<275.473 591> 606 60<192.507 591>
LayerCount: 2
Fore
SplineSet
238.505 818.737 m 5
 495.09 741.354 l 5
 477.188 681.994 l 5
 220.604 759.378 l 5
 238.505 818.737 l 5
66 593 m 1
 235.688 593 l 1
 235.688 375.938 l 2
 235.688 286.154 284.883 198.26 357.562 157.062 c 1
 430.242 198.26 479.438 286.137 479.438 375.938 c 2
 479.438 591 l 1
 539.438 591 l 1
 539.438 375.938 l 2
 539.438 280.998 495.094 186.189 426 131.188 c 1
 442.031 127.807 458.602 125.938 475.688 125.938 c 0
 502.354 125.938 527.918 130.314 551.812 138.312 c 1
 585.68 179.686 606 232.25 606 290 c 2
 606 591 l 1
 666 591 l 1
 666 290 l 2
 666 214.742 638.027 145.783 592.125 93.125 c 0
 537.17 30.0723 456.1 -10 366 -10 c 0
 279.955 -10 202.049 26.4805 147.375 84.6875 c 0
 96.9844 138.312 66 210.711 66 290 c 2
 66 593 l 1
126 533 m 1
 126 290 l 2
 126 226.291 150.674 168.916 191.062 125.938 c 0
 234.879 79.291 296.854 50 366 50 c 0
 396.762 50 425.496 56.7559 452.438 67.25 c 1
 414.035 70.2207 377.467 80.0117 344.438 96.125 c 0
 244.5 144.828 175.688 257.59 175.688 375.938 c 2
 175.688 533 l 1
 126 533 l 1
EndSplineSet
Validated: 524289
EndChar

StartChar: Ucircumflex
Encoding: 219 219 91
Width: 738
VWidth: 0
Flags: W
HStem: -10 60<266.22 451.173> 533 60<126 175.688> 726.266 62<222.232 490.23>
VStem: 66 60<190.885 533> 175.688 60<274.258 533> 479.438 60<275.473 591> 606 60<192.507 591>
LayerCount: 2
Fore
SplineSet
222.231 788.266 m 5
 490.23 788.265 l 5
 490.231 726.265 l 5
 222.232 726.266 l 5
 222.231 788.266 l 5
66 593 m 1
 235.688 593 l 1
 235.688 375.938 l 2
 235.688 286.154 284.883 198.26 357.562 157.062 c 1
 430.242 198.26 479.438 286.137 479.438 375.938 c 2
 479.438 591 l 1
 539.438 591 l 1
 539.438 375.938 l 2
 539.438 280.998 495.094 186.189 426 131.188 c 1
 442.031 127.807 458.602 125.938 475.688 125.938 c 0
 502.354 125.938 527.918 130.314 551.812 138.312 c 1
 585.68 179.686 606 232.25 606 290 c 2
 606 591 l 1
 666 591 l 1
 666 290 l 2
 666 214.742 638.027 145.783 592.125 93.125 c 0
 537.17 30.0723 456.1 -10 366 -10 c 0
 279.955 -10 202.049 26.4805 147.375 84.6875 c 0
 96.9844 138.312 66 210.711 66 290 c 2
 66 593 l 1
126 533 m 1
 126 290 l 2
 126 226.291 150.674 168.916 191.062 125.938 c 0
 234.879 79.291 296.854 50 366 50 c 0
 396.762 50 425.496 56.7559 452.438 67.25 c 1
 414.035 70.2207 377.467 80.0117 344.438 96.125 c 0
 244.5 144.828 175.688 257.59 175.688 375.938 c 2
 175.688 533 l 1
 126 533 l 1
EndSplineSet
Validated: 524289
EndChar

StartChar: Udieresis
Encoding: 220 220 92
Width: 738
VWidth: 0
Flags: W
HStem: -10 60<266.22 451.173> 533 60<126 175.688> 726.266 62<269.232 329.23 395.232 455.23>
VStem: 66 60<190.885 533> 175.688 60<274.258 533> 269.232 59.999<726.266 788.265> 395.232 59.999<726.266 788.265> 479.438 60<275.473 591> 606 60<192.507 591>
LayerCount: 2
Fore
SplineSet
395.231 788.266 m 5
 455.23 788.265 l 5
 455.231 726.265 l 5
 395.232 726.266 l 5
 395.231 788.266 l 5
269.231 788.266 m 5
 329.23 788.265 l 5
 329.231 726.265 l 5
 269.232 726.266 l 5
 269.231 788.266 l 5
66 593 m 1
 235.688 593 l 1
 235.688 375.938 l 2
 235.688 286.154 284.883 198.26 357.562 157.062 c 1
 430.242 198.26 479.438 286.137 479.438 375.938 c 2
 479.438 591 l 1
 539.438 591 l 1
 539.438 375.938 l 2
 539.438 280.998 495.094 186.189 426 131.188 c 1
 442.031 127.807 458.602 125.938 475.688 125.938 c 0
 502.354 125.938 527.918 130.314 551.812 138.312 c 1
 585.68 179.686 606 232.25 606 290 c 2
 606 591 l 1
 666 591 l 1
 666 290 l 2
 666 214.742 638.027 145.783 592.125 93.125 c 0
 537.17 30.0723 456.1 -10 366 -10 c 0
 279.955 -10 202.049 26.4805 147.375 84.6875 c 0
 96.9844 138.312 66 210.711 66 290 c 2
 66 593 l 1
126 533 m 1
 126 290 l 2
 126 226.291 150.674 168.916 191.062 125.938 c 0
 234.879 79.291 296.854 50 366 50 c 0
 396.762 50 425.496 56.7559 452.438 67.25 c 1
 414.035 70.2207 377.467 80.0117 344.438 96.125 c 0
 244.5 144.828 175.688 257.59 175.688 375.938 c 2
 175.688 533 l 1
 126 533 l 1
EndSplineSet
Validated: 524289
EndChar

StartChar: Yacute
Encoding: 221 221 93
Width: 801
VWidth: 0
Flags: W
HStem: 0 21G<314.5 376.562 424.188 484.188> 0 21G<314.5 376.562 424.188 484.188> 571 20G<49 153.922 197.688 302.625 498.125 603.062 644.75 749.688> 571 20G<49 153.922 197.688 302.625 498.125 603.062 644.75 749.688>
VStem: 314.5 62.062<0 218.062 300.75 325.688> 424.188 60<0 265.688>
LayerCount: 2
Fore
SplineSet
253.073 737.035 m 5x0c
 507.32 821.783 l 5
 526.927 762.965 l 5
 272.68 678.217 l 5
 253.073 737.035 l 5x0c
49 591 m 1xac
 133.938 591 l 1
 374.5 350.25 l 1
 374.5 300.75 l 1
 664.75 591 l 1
 749.688 591 l 1
 484.188 325.688 l 1
 484.188 0 l 1
 424.188 0 l 1
 424.188 265.688 l 1
 376.562 218.062 l 1
 376.562 0 l 1
 314.5 0 l 1
 314.5 325.688 l 1
 49 591 l 1xac
197.688 591 m 1
 282.625 591 l 1
 400.375 473.25 l 1
 518.125 591 l 1
 603.062 591 l 1
 400.375 388.125 l 1
 197.688 591 l 1
EndSplineSet
Validated: 524289
EndChar

StartChar: Agrave
Encoding: 192 192 94
Width: 812
VWidth: 0
Flags: W
HStem: 0.25 60<554.562 655.812> 636 20G<383.118 404.937>
LayerCount: 2
Fore
SplineSet
251.073 737.035 m 5
 505.32 821.783 l 5
 524.927 762.965 l 5
 270.68 678.217 l 5
 251.073 737.035 l 5
393.688 656 m 1
 762.5 0.25 l 1
 518.562 0.25 l 1
 393.688 240.688 l 1
 287 0 l 1
 217.625 0 l 1
 393.688 360.688 l 1
 554.562 60.25 l 1
 655.812 60.25 l 1
 393.688 536 l 1
 116.375 0 l 1
 47 0 l 1
 393.688 656 l 1
EndSplineSet
Validated: 524289
EndChar

StartChar: Aacute
Encoding: 193 193 95
Width: 812
VWidth: 0
Flags: W
HStem: 0.25 60<554.562 655.812> 636 20G<383.118 404.937>
LayerCount: 2
Fore
SplineSet
267.505 818.737 m 5
 524.09 741.354 l 5
 506.188 681.994 l 5
 249.604 759.378 l 5
 267.505 818.737 l 5
393.688 656 m 1
 762.5 0.25 l 1
 518.562 0.25 l 1
 393.688 240.688 l 1
 287 0 l 1
 217.625 0 l 1
 393.688 360.688 l 1
 554.562 60.25 l 1
 655.812 60.25 l 1
 393.688 536 l 1
 116.375 0 l 1
 47 0 l 1
 393.688 656 l 1
EndSplineSet
Validated: 524289
EndChar

StartChar: Acircumflex
Encoding: 194 194 96
Width: 812
VWidth: 0
Flags: W
HStem: 0.25 60<554.562 655.812> 636 20G<383.118 404.937> 726.266 62<247.232 515.23>
LayerCount: 2
Fore
SplineSet
247.231 788.266 m 5
 515.23 788.265 l 5
 515.231 726.265 l 5
 247.232 726.266 l 5
 247.231 788.266 l 5
393.688 656 m 1
 762.5 0.25 l 1
 518.562 0.25 l 1
 393.688 240.688 l 1
 287 0 l 1
 217.625 0 l 1
 393.688 360.688 l 1
 554.562 60.25 l 1
 655.812 60.25 l 1
 393.688 536 l 1
 116.375 0 l 1
 47 0 l 1
 393.688 656 l 1
EndSplineSet
Validated: 524289
EndChar

StartChar: Atilde
Encoding: 195 195 97
Width: 812
VWidth: 0
Flags: W
HStem: 0.25 60<554.562 655.812> 636 20G<383.118 404.937>
LayerCount: 2
Fore
SplineSet
393.688 656 m 1
 762.5 0.25 l 1
 518.562 0.25 l 1
 393.688 240.688 l 1
 287 0 l 1
 217.625 0 l 1
 393.688 360.688 l 1
 554.562 60.25 l 1
 655.812 60.25 l 1
 393.688 536 l 1
 116.375 0 l 1
 47 0 l 1
 393.688 656 l 1
EndSplineSet
Validated: 524289
EndChar

StartChar: Adieresis
Encoding: 196 196 98
Width: 812
VWidth: 0
Flags: W
HStem: 0.25 60<554.562 655.812> 636 20G<383.118 404.937> 726.266 62<286.232 355.23 424.232 493.23>
VStem: 286.232 68.999<726.266 788.265> 424.232 68.999<726.266 788.265>
LayerCount: 2
Fore
SplineSet
424.231 788.266 m 5
 493.23 788.265 l 5
 493.231 726.265 l 5
 424.232 726.266 l 5
 424.231 788.266 l 5
286.231 788.266 m 5
 355.23 788.265 l 5
 355.231 726.265 l 5
 286.232 726.266 l 5
 286.231 788.266 l 5
393.688 656 m 1
 762.5 0.25 l 1
 518.562 0.25 l 1
 393.688 240.688 l 1
 287 0 l 1
 217.625 0 l 1
 393.688 360.688 l 1
 554.562 60.25 l 1
 655.812 60.25 l 1
 393.688 536 l 1
 116.375 0 l 1
 47 0 l 1
 393.688 656 l 1
EndSplineSet
Validated: 524289
EndChar

StartChar: Aring
Encoding: 197 197 99
Width: 812
VWidth: 0
Flags: W
HStem: 0.25 60<554.562 655.812> 636 20G<383.118 404.937>
LayerCount: 2
Fore
SplineSet
393.688 656 m 1
 762.5 0.25 l 1
 518.562 0.25 l 1
 393.688 240.688 l 1
 287 0 l 1
 217.625 0 l 1
 393.688 360.688 l 1
 554.562 60.25 l 1
 655.812 60.25 l 1
 393.688 536 l 1
 116.375 0 l 1
 47 0 l 1
 393.688 656 l 1
EndSplineSet
Validated: 524289
EndChar

StartChar: aacute
Encoding: 225 225 100
Width: 812
VWidth: 0
Flags: W
HStem: 0.25 60<554.562 655.812> 636 20G<383.118 404.937>
LayerCount: 2
Fore
SplineSet
251.073 737.035 m 1
 505.32 821.783 l 1
 524.927 762.965 l 1
 270.68 678.217 l 1
 251.073 737.035 l 1
393.688 656 m 1
 762.5 0.25 l 1
 518.562 0.25 l 1
 393.688 240.688 l 1
 287 0 l 1
 217.625 0 l 1
 393.688 360.688 l 1
 554.562 60.25 l 1
 655.812 60.25 l 1
 393.688 536 l 1
 116.375 0 l 1
 47 0 l 1
 393.688 656 l 1
EndSplineSet
Validated: 524289
EndChar

StartChar: acircumflex
Encoding: 226 226 101
Width: 812
VWidth: 0
Flags: W
HStem: 0.25 60<554.562 655.812> 636 20G<383.118 404.937> 726.266 62<254.232 522.23>
LayerCount: 2
Fore
SplineSet
254.231 788.266 m 5
 522.23 788.265 l 5
 522.231 726.265 l 5
 254.232 726.266 l 5
 254.231 788.266 l 5
393.688 656 m 1
 762.5 0.25 l 1
 518.562 0.25 l 1
 393.688 240.688 l 1
 287 0 l 1
 217.625 0 l 1
 393.688 360.688 l 1
 554.562 60.25 l 1
 655.812 60.25 l 1
 393.688 536 l 1
 116.375 0 l 1
 47 0 l 1
 393.688 656 l 1
EndSplineSet
Validated: 524289
EndChar

StartChar: atilde
Encoding: 227 227 102
Width: 812
VWidth: 0
Flags: W
HStem: 0.25 60<554.562 655.812> 636 20G<383.118 404.937>
LayerCount: 2
Fore
SplineSet
393.688 656 m 1
 762.5 0.25 l 1
 518.562 0.25 l 1
 393.688 240.688 l 1
 287 0 l 1
 217.625 0 l 1
 393.688 360.688 l 1
 554.562 60.25 l 1
 655.812 60.25 l 1
 393.688 536 l 1
 116.375 0 l 1
 47 0 l 1
 393.688 656 l 1
EndSplineSet
Validated: 524289
EndChar

StartChar: adieresis
Encoding: 228 228 103
Width: 812
VWidth: 0
Flags: W
HStem: 0.25 60<554.562 655.812> 636 20G<383.118 404.936>
LayerCount: 2
Fore
SplineSet
424.231 788.266 m 5
 493.23 788.265 l 5
 493.231 726.265 l 5
 424.232 726.266 l 5
 424.231 788.266 l 5
286.231 788.266 m 5
 355.23 788.265 l 5
 355.231 726.265 l 5
 286.232 726.266 l 5
 286.231 788.266 l 5
393.688 656 m 1
 762.5 0.25 l 1
 518.562 0.25 l 1
 393.688 240.688 l 1
 287 0 l 1
 217.625 0 l 1
 393.688 360.688 l 1
 554.562 60.25 l 1
 655.812 60.25 l 1
 393.688 536 l 1
 116.375 0 l 1
 47 0 l 1
 393.688 656 l 1
EndSplineSet
Validated: 524289
EndChar

StartChar: aring
Encoding: 229 229 104
Width: 812
VWidth: 0
Flags: W
HStem: 0.25 60<554.562 655.812> 636 20G<383.118 404.937>
LayerCount: 2
Fore
SplineSet
393.688 656 m 1
 762.5 0.25 l 1
 518.562 0.25 l 1
 393.688 240.688 l 1
 287 0 l 1
 217.625 0 l 1
 393.688 360.688 l 1
 554.562 60.25 l 1
 655.812 60.25 l 1
 393.688 536 l 1
 116.375 0 l 1
 47 0 l 1
 393.688 656 l 1
EndSplineSet
Validated: 524289
EndChar

StartChar: egrave
Encoding: 232 232 105
Width: 531
VWidth: 0
Flags: W
HStem: 583.516 20G<382.302 428.5>
VStem: 401.969 60<245.641 346.641>
LayerCount: 2
Fore
SplineSet
126.073 737.035 m 5
 380.32 821.783 l 5
 399.927 762.965 l 5
 145.68 678.217 l 5
 126.073 737.035 l 5
416.969 -11 m 1
 49 201.344 l 1
 203.923 301.641 l 1
 49 391.172 l 1
 94 417.188 l 1
 416.969 603.516 l 1
 446.969 551.484 l 1
 169 391.172 l 1
 263.923 336.328 l 1
 461.969 450.703 l 1
 461.969 141.812 l 1
 263.923 255.953 l 1
 169 201.344 l 1
 446.969 40.7969 l 1
 416.969 -11 l 1
401.969 245.641 m 1
 401.969 346.641 l 1
 323.923 301.641 l 1
 401.969 245.641 l 1
EndSplineSet
Validated: 524289
EndChar

StartChar: eacute
Encoding: 233 233 106
Width: 531
VWidth: 0
Flags: W
HStem: 583.516 20G<382.302 428.5>
VStem: 401.969 60<245.641 346.641>
LayerCount: 2
Fore
SplineSet
150.505 818.737 m 5
 407.09 741.354 l 5
 389.188 681.994 l 5
 132.604 759.378 l 5
 150.505 818.737 l 5
416.969 -11 m 1
 49 201.344 l 1
 203.923 301.641 l 1
 49 391.172 l 1
 94 417.188 l 1
 416.969 603.516 l 1
 446.969 551.484 l 1
 169 391.172 l 1
 263.923 336.328 l 1
 461.969 450.703 l 1
 461.969 141.812 l 1
 263.923 255.953 l 1
 169 201.344 l 1
 446.969 40.7969 l 1
 416.969 -11 l 1
401.969 245.641 m 1
 401.969 346.641 l 1
 323.923 301.641 l 1
 401.969 245.641 l 1
EndSplineSet
Validated: 524289
EndChar

StartChar: ecircumflex
Encoding: 234 234 107
Width: 531
VWidth: 0
Flags: W
HStem: 583.516 20G<382.302 428.5> 726.266 62<133.232 401.23>
VStem: 401.969 60<245.641 346.641>
LayerCount: 2
Fore
SplineSet
133.231 788.266 m 5
 401.23 788.265 l 5
 401.231 726.265 l 5
 133.232 726.266 l 5
 133.231 788.266 l 5
416.969 -11 m 1
 49 201.344 l 1
 203.923 301.641 l 1
 49 391.172 l 1
 94 417.188 l 1
 416.969 603.516 l 1
 446.969 551.484 l 1
 169 391.172 l 1
 263.923 336.328 l 1
 461.969 450.703 l 1
 461.969 141.812 l 1
 263.923 255.953 l 1
 169 201.344 l 1
 446.969 40.7969 l 1
 416.969 -11 l 1
401.969 245.641 m 1
 401.969 346.641 l 1
 323.923 301.641 l 1
 401.969 245.641 l 1
EndSplineSet
Validated: 524289
EndChar

StartChar: edieresis
Encoding: 235 235 108
Width: 531
VWidth: 0
Flags: W
HStem: 583.516 20G<382.302 428.5> 726.266 62<193.232 262.23 331.232 400.23>
VStem: 193.232 68.999<726.266 788.265> 331.232 68.999<726.266 788.265> 401.969 60<245.641 346.641>
LayerCount: 2
Fore
SplineSet
331.231 788.266 m 1
 400.23 788.265 l 1
 400.231 726.265 l 1
 331.232 726.266 l 1
 331.231 788.266 l 1
193.231 788.266 m 1
 262.23 788.265 l 1
 262.231 726.265 l 1
 193.232 726.266 l 1
 193.231 788.266 l 1
416.969 -11 m 1
 49 201.344 l 1
 203.923 301.641 l 1
 49 391.172 l 1
 94 417.188 l 1
 416.969 603.516 l 1
 446.969 551.484 l 1
 169 391.172 l 1
 263.923 336.328 l 1
 461.969 450.703 l 1
 461.969 141.812 l 1
 263.923 255.953 l 1
 169 201.344 l 1
 446.969 40.7969 l 1
 416.969 -11 l 1
401.969 245.641 m 1
 401.969 346.641 l 1
 323.923 301.641 l 1
 401.969 245.641 l 1
EndSplineSet
Validated: 524289
EndChar

StartChar: igrave
Encoding: 236 236 109
Width: 327
VWidth: 0
Flags: W
HStem: 0 21G<73 132.063 191.125 250.188> 0 21G<73 132.063 191.125 250.188> 510.562 59.0625<132.063 191.125>
VStem: 73 59.0625<0 510.562> 191.125 59.0625<0 510.562>
LayerCount: 2
Fore
SplineSet
43.5049 818.737 m 1x38
 300.09 741.354 l 1
 282.188 681.994 l 1
 25.6035 759.378 l 1
 43.5049 818.737 l 1x38
73 591.625 m 1
 250.188 591.625 l 1
 250.188 0 l 1
 191.125 0 l 1
 191.125 532.562 l 1
 132.062 532.562 l 1
 132.062 0 l 1
 73 0 l 1xb8
 73 591.625 l 1
EndSplineSet
Validated: 524289
EndChar

StartChar: iacute
Encoding: 237 237 110
Width: 327
VWidth: 0
Flags: W
HStem: 0 21G<73 132.063 191.125 250.188> 0 21G<73 132.063 191.125 250.188> 510.562 59.0625<132.063 191.125>
VStem: 73 59.0625<0 510.562> 191.125 59.0625<0 510.562>
LayerCount: 2
Fore
SplineSet
27.0732 737.035 m 5x38
 281.32 821.783 l 5
 300.927 762.965 l 5
 46.6797 678.217 l 5
 27.0732 737.035 l 5x38
73 591.625 m 1
 250.188 591.625 l 1
 250.188 0 l 1
 191.125 0 l 1
 191.125 532.562 l 1
 132.062 532.562 l 1
 132.062 0 l 1
 73 0 l 1xb8
 73 591.625 l 1
EndSplineSet
Validated: 524289
EndChar

StartChar: icircumflex
Encoding: 238 238 111
Width: 327
VWidth: 0
Flags: W
HStem: 0 21G<73 132.063 191.125 250.188> 0 21G<73 132.063 191.125 250.188> 532.562 59.0625<132.063 191.125>
VStem: 73 59.0626<0 532.562> 191.125 59.063<0 532.562>
LayerCount: 2
Fore
SplineSet
29.2314 788.266 m 1x38
 297.23 788.265 l 1
 297.231 726.265 l 1
 29.2324 726.266 l 1
 29.2314 788.266 l 1x38
73 591.625 m 1
 250.188 591.625 l 1
 250.188 0 l 1
 191.125 0 l 1
 191.125 532.562 l 1
 132.062 532.562 l 1
 132.062 0 l 1
 73 0 l 1xb8
 73 591.625 l 1
EndSplineSet
Validated: 524289
EndChar

StartChar: idieresis
Encoding: 239 239 112
Width: 327
VWidth: 0
Flags: W
HStem: 0 21G<73 132.063 191.125 250.188> 0 21G<73 132.063 191.125 250.188> 532.562 59.0625<132.063 191.125>
VStem: 73 59.0626<0 532.562> 191.125 59.063<0 532.562>
LayerCount: 2
Fore
SplineSet
191.231 788.266 m 1x38
 251.23 788.265 l 1
 251.231 726.265 l 1
 191.232 726.266 l 1
 191.231 788.266 l 1x38
71.2314 788.266 m 1
 131.23 788.265 l 1
 131.231 726.265 l 1
 71.2324 726.266 l 1
 71.2314 788.266 l 1
73 591.625 m 1
 250.188 591.625 l 1
 250.188 0 l 1
 191.125 0 l 1
 191.125 532.562 l 1
 132.062 532.562 l 1
 132.062 0 l 1
 73 0 l 1xb8
 73 591.625 l 1
EndSplineSet
Validated: 524289
EndChar

StartChar: ntilde
Encoding: 241 241 113
Width: 742
VWidth: 0
Flags: W
HStem: 0 60<133 191.125> 0.0625 21G<645.886 664.562> 573.438 20G<486.438 546.438 604.562 664.562> 573.438 20G<486.438 546.438 604.562 664.562>
VStem: 73 60<60 481.5> 191.125 60<60 327.188> 486.438 60<118.5 126.562 211.312 593.438> 604.562 60<145.188 593.438>
LayerCount: 2
Fore
SplineSet
73 658.5 m 5x8f
 486.438 118.5 l 5
 486.438 593.438 l 5
 546.438 593.438 l 5
 546.438 211.312 l 5
 604.562 145.188 l 5
 604.562 593.438 l 5
 664.562 593.438 l 5
 664.562 0.0625 l 5x6f
 546.438 126.562 l 5
 546.438 -58.5 l 5
 251.125 327.188 l 5
 251.125 0 l 5
 73 0 l 5
 73 658.5 l 5x8f
133 481.5 m 5
 133 60 l 5
 191.125 60 l 5x8f
 191.125 405.562 l 5
 133 481.5 l 5
EndSplineSet
Validated: 524289
EndChar

StartChar: AE
Encoding: 198 198 114
Width: 1261
VWidth: 0
Flags: W
HStem: 0 60<554.562 655.812 790.015 856.577 916.577 1172.08> 170.188 60<727.676 760.293 854.238 886.855> 288.312 60<660.847 693.464 787.409 853.972> 414.875 60<589.243 621.86 715.806 937.36> 533 60<522.413 588.976 648.976 870.53> 636 20G<383.118 404.937>
LayerCount: 2
Fore
SplineSet
428.468 593 m 1
 870.53 593 l 1
 904.476 533 l 1
 648.976 533 l 1
 681.86 474.875 l 1
 937.36 474.875 l 1
 971.306 414.875 l 1
 715.806 414.875 l 1
 753.464 348.312 l 1
 879.026 348.312 l 1
 979.801 170.188 l 1
 854.238 170.188 l 1
 916.577 60 l 1
 1172.08 60 l 1
 1206.02 0 l 1
 763.96 0 l 1
 428.468 593 l 1
522.413 533 m 1
 555.298 474.875 l 1
 621.86 474.875 l 1
 588.976 533 l 1
 522.413 533 l 1
589.243 414.875 m 1
 626.901 348.312 l 1
 693.464 348.312 l 1
 655.806 414.875 l 1
 589.243 414.875 l 1
660.847 288.312 m 1
 693.73 230.188 l 1
 760.293 230.188 l 1
 727.409 288.312 l 1
 660.847 288.312 l 1
787.409 288.312 m 1
 820.293 230.188 l 1
 886.855 230.188 l 1
 853.972 288.312 l 1
 787.409 288.312 l 1
727.676 170.188 m 1
 790.015 60 l 1
 856.577 60 l 1
 794.238 170.188 l 1
 727.676 170.188 l 1
393.688 656 m 1
 762.5 0.25 l 1
 518.562 0.25 l 1
 393.688 240.688 l 1
 287 0 l 1
 217.625 0 l 1
 393.688 360.688 l 1
 554.562 60.25 l 1
 655.812 60.25 l 1
 393.688 536 l 1
 116.375 0 l 1
 47 0 l 1
 393.688 656 l 1
EndSplineSet
Validated: 524293
EndChar

StartChar: oacute
Encoding: 243 243 115
Width: 718
VWidth: 0
Flags: W
HStem: 0 60<259.097 452.504> 413.438 60<288.406 393.482> 540 60<257.497 435.18>
VStem: 55 60<219.873 397.501> 181.562 60<261.611 366.589> 595 60<202.497 395.906>
LayerCount: 2
Fore
SplineSet
218.073 737.035 m 1
 472.32 821.783 l 1
 491.927 762.965 l 1
 237.68 678.217 l 1
 218.073 737.035 l 1
355 600 m 0
 408.771 600 459.461 585.639 503.125 560.812 c 2
 537.438 541.312 l 1
 444.438 448.5 l 1
 464.178 436.611 481.258 420.873 494.875 402.375 c 1
 586.75 494.062 l 1
 607 462.75 l 2
 637.387 415.863 655 359.965 655 300 c 0
 655 134.666 520.334 0 355 0 c 0
 295.035 0 239.143 17.8066 192.25 48.1875 c 2
 160.938 68.4375 l 1
 252.812 160.312 l 1
 234.332 173.865 218.582 190.91 206.688 210.562 c 1
 113.688 117.75 l 1
 94.1875 152.062 l 2
 69.3613 195.738 55 246.234 55 300 c 0
 55 465.328 189.666 600 355 600 c 0
355 540 m 0
 222.092 540 115 432.902 115 300 c 0
 115 271.266 120.578 244.078 129.812 218.625 c 1
 183.812 272.812 l 2
 182.406 281.672 181.562 290.754 181.562 300 c 0
 181.562 395.426 259.562 473.438 355 473.438 c 0
 363.168 473.408 372.848 472.383 382.375 471.188 c 1
 436.375 525.375 l 1
 410.951 534.586 383.699 540 355 540 c 0
355 413.438 m 0
 291.988 413.438 241.562 363 241.562 300 c 0
 241.562 258.873 263.342 223.143 295.75 203.25 c 1
 451.75 359.062 l 1
 431.875 391.559 396.186 413.438 355 413.438 c 0
574.375 396.75 m 1
 258.25 80.8125 l 1
 287.893 67.6582 320.377 60 355 60 c 0
 487.914 60 595 167.092 595 300 c 0
 595 334.529 587.459 367.178 574.375 396.75 c 1
EndSplineSet
Validated: 524289
EndChar

StartChar: ograve
Encoding: 242 242 116
Width: 718
VWidth: 0
Flags: W
HStem: 0 60<259.097 452.504> 413.438 60<288.406 393.482> 540 60<257.497 435.18>
VStem: 55 60<219.873 397.501> 181.562 60<261.611 366.589> 595 60<202.497 395.906>
LayerCount: 2
Fore
SplineSet
258.505 818.737 m 5
 515.09 741.354 l 5
 497.188 681.994 l 5
 240.604 759.378 l 5
 258.505 818.737 l 5
355 600 m 0
 408.771 600 459.461 585.639 503.125 560.812 c 2
 537.438 541.312 l 1
 444.438 448.5 l 1
 464.178 436.611 481.258 420.873 494.875 402.375 c 1
 586.75 494.062 l 1
 607 462.75 l 2
 637.387 415.863 655 359.965 655 300 c 0
 655 134.666 520.334 0 355 0 c 0
 295.035 0 239.143 17.8066 192.25 48.1875 c 2
 160.938 68.4375 l 1
 252.812 160.312 l 1
 234.332 173.865 218.582 190.91 206.688 210.562 c 1
 113.688 117.75 l 1
 94.1875 152.062 l 2
 69.3613 195.738 55 246.234 55 300 c 0
 55 465.328 189.666 600 355 600 c 0
355 540 m 0
 222.092 540 115 432.902 115 300 c 0
 115 271.266 120.578 244.078 129.812 218.625 c 1
 183.812 272.812 l 2
 182.406 281.672 181.562 290.754 181.562 300 c 0
 181.562 395.426 259.562 473.438 355 473.438 c 0
 363.168 473.408 372.848 472.383 382.375 471.188 c 1
 436.375 525.375 l 1
 410.951 534.586 383.699 540 355 540 c 0
355 413.438 m 0
 291.988 413.438 241.562 363 241.562 300 c 0
 241.562 258.873 263.342 223.143 295.75 203.25 c 1
 451.75 359.062 l 1
 431.875 391.559 396.186 413.438 355 413.438 c 0
574.375 396.75 m 1
 258.25 80.8125 l 1
 287.893 67.6582 320.377 60 355 60 c 0
 487.914 60 595 167.092 595 300 c 0
 595 334.529 587.459 367.178 574.375 396.75 c 1
EndSplineSet
Validated: 524289
EndChar

StartChar: ae
Encoding: 230 230 117
Width: 1261
VWidth: 0
Flags: W
HStem: 0 60<554.562 655.812 790.015 856.577 916.577 1172.08> 170.188 60<727.676 760.293 854.238 886.855> 288.312 60<660.847 693.464 787.409 853.972> 414.875 60<589.243 621.86 715.806 937.36> 533 60<522.413 588.976 648.976 870.53> 636 20G<383.118 404.937>
LayerCount: 2
Fore
SplineSet
428.468 593 m 1
 870.53 593 l 1
 904.476 533 l 1
 648.976 533 l 1
 681.86 474.875 l 1
 937.36 474.875 l 1
 971.306 414.875 l 1
 715.806 414.875 l 1
 753.464 348.312 l 1
 879.026 348.312 l 1
 979.801 170.188 l 1
 854.238 170.188 l 1
 916.577 60 l 1
 1172.08 60 l 1
 1206.02 0 l 1
 763.96 0 l 1
 428.468 593 l 1
522.413 533 m 1
 555.298 474.875 l 1
 621.86 474.875 l 1
 588.976 533 l 1
 522.413 533 l 1
589.243 414.875 m 1
 626.901 348.312 l 1
 693.464 348.312 l 1
 655.806 414.875 l 1
 589.243 414.875 l 1
660.847 288.312 m 1
 693.73 230.188 l 1
 760.293 230.188 l 1
 727.409 288.312 l 1
 660.847 288.312 l 1
787.409 288.312 m 1
 820.293 230.188 l 1
 886.855 230.188 l 1
 853.972 288.312 l 1
 787.409 288.312 l 1
727.676 170.188 m 1
 790.015 60 l 1
 856.577 60 l 1
 794.238 170.188 l 1
 727.676 170.188 l 1
393.688 656 m 1
 762.5 0.25 l 1
 518.562 0.25 l 1
 393.688 240.688 l 1
 287 0 l 1
 217.625 0 l 1
 393.688 360.688 l 1
 554.562 60.25 l 1
 655.812 60.25 l 1
 393.688 536 l 1
 116.375 0 l 1
 47 0 l 1
 393.688 656 l 1
EndSplineSet
Validated: 524293
EndChar

StartChar: ocircumflex
Encoding: 244 244 118
Width: 718
VWidth: 0
Flags: W
HStem: 0 60<259.097 452.504> 413.438 60<288.406 393.482> 540 60<257.497 435.18>
VStem: 55 60<219.873 397.501> 181.562 60<261.611 366.589> 595 60<202.497 395.906>
LayerCount: 2
Fore
SplineSet
218.231 788.266 m 5
 486.23 788.265 l 5
 486.231 726.265 l 5
 218.232 726.266 l 5
 218.231 788.266 l 5
355 600 m 0
 408.771 600 459.461 585.639 503.125 560.812 c 2
 537.438 541.312 l 1
 444.438 448.5 l 1
 464.178 436.611 481.258 420.873 494.875 402.375 c 1
 586.75 494.062 l 1
 607 462.75 l 2
 637.387 415.863 655 359.965 655 300 c 0
 655 134.666 520.334 0 355 0 c 0
 295.035 0 239.143 17.8066 192.25 48.1875 c 2
 160.938 68.4375 l 1
 252.812 160.312 l 1
 234.332 173.865 218.582 190.91 206.688 210.562 c 1
 113.688 117.75 l 1
 94.1875 152.062 l 2
 69.3613 195.738 55 246.234 55 300 c 0
 55 465.328 189.666 600 355 600 c 0
355 540 m 0
 222.092 540 115 432.902 115 300 c 0
 115 271.266 120.578 244.078 129.812 218.625 c 1
 183.812 272.812 l 2
 182.406 281.672 181.562 290.754 181.562 300 c 0
 181.562 395.426 259.562 473.438 355 473.438 c 0
 363.168 473.408 372.848 472.383 382.375 471.188 c 1
 436.375 525.375 l 1
 410.951 534.586 383.699 540 355 540 c 0
355 413.438 m 0
 291.988 413.438 241.562 363 241.562 300 c 0
 241.562 258.873 263.342 223.143 295.75 203.25 c 1
 451.75 359.062 l 1
 431.875 391.559 396.186 413.438 355 413.438 c 0
574.375 396.75 m 1
 258.25 80.8125 l 1
 287.893 67.6582 320.377 60 355 60 c 0
 487.914 60 595 167.092 595 300 c 0
 595 334.529 587.459 367.178 574.375 396.75 c 1
EndSplineSet
Validated: 524289
EndChar

StartChar: odieresis
Encoding: 246 246 119
Width: 718
VWidth: 0
Flags: W
HStem: 0 60<259.097 452.504> 413.438 60<288.406 393.482> 540 60<257.497 435.18>
VStem: 55 60<219.873 397.501> 181.562 60<261.611 366.589> 595 60<202.497 395.906>
LayerCount: 2
Fore
SplineSet
388.231 788.266 m 1
 448.23 788.265 l 1
 448.231 726.265 l 1
 388.232 726.266 l 1
 388.231 788.266 l 1
262.231 788.266 m 1
 322.23 788.265 l 1
 322.231 726.265 l 1
 262.232 726.266 l 1
 262.231 788.266 l 1
355 600 m 0
 408.771 600 459.461 585.639 503.125 560.812 c 2
 537.438 541.312 l 1
 444.438 448.5 l 1
 464.178 436.611 481.258 420.873 494.875 402.375 c 1
 586.75 494.062 l 1
 607 462.75 l 2
 637.387 415.863 655 359.965 655 300 c 0
 655 134.666 520.334 0 355 0 c 0
 295.035 0 239.143 17.8066 192.25 48.1875 c 2
 160.938 68.4375 l 1
 252.812 160.312 l 1
 234.332 173.865 218.582 190.91 206.688 210.562 c 1
 113.688 117.75 l 1
 94.1875 152.062 l 2
 69.3613 195.738 55 246.234 55 300 c 0
 55 465.328 189.666 600 355 600 c 0
355 540 m 0
 222.092 540 115 432.902 115 300 c 0
 115 271.266 120.578 244.078 129.812 218.625 c 1
 183.812 272.812 l 2
 182.406 281.672 181.562 290.754 181.562 300 c 0
 181.562 395.426 259.562 473.438 355 473.438 c 0
 363.168 473.408 372.848 472.383 382.375 471.188 c 1
 436.375 525.375 l 1
 410.951 534.586 383.699 540 355 540 c 0
355 413.438 m 0
 291.988 413.438 241.562 363 241.562 300 c 0
 241.562 258.873 263.342 223.143 295.75 203.25 c 1
 451.75 359.062 l 1
 431.875 391.559 396.186 413.438 355 413.438 c 0
574.375 396.75 m 1
 258.25 80.8125 l 1
 287.893 67.6582 320.377 60 355 60 c 0
 487.914 60 595 167.092 595 300 c 0
 595 334.529 587.459 367.178 574.375 396.75 c 1
EndSplineSet
Validated: 524289
EndChar
